# Blender v2.76 (sub 0) OBJ File: ''
# www.blender.org
mtllib boompje.mtl
o Cylinder
v 0.000000 -1.000000 -1.000000
v 0.000000 1.000000 -1.000000
v 0.195090 -1.000000 -0.980785
v 0.195090 1.000000 -0.980785
v 0.382683 -1.000000 -0.923880
v 0.382683 1.000000 -0.923880
v 0.555570 -1.000000 -0.831470
v 0.555570 1.000000 -0.831470
v 0.707107 -1.000000 -0.707107
v 0.707107 1.000000 -0.707107
v 0.831470 -1.000000 -0.555570
v 0.831470 1.000000 -0.555570
v 0.923880 -1.000000 -0.382683
v 0.923880 1.000000 -0.382683
v 0.980785 -1.000000 -0.195090
v 0.980785 1.000000 -0.195090
v 1.000000 -1.000000 -0.000000
v 1.000000 1.000000 -0.000000
v 0.980785 -1.000000 0.195090
v 0.980785 1.000000 0.195090
v 0.923880 -1.000000 0.382683
v 0.923880 1.000000 0.382683
v 0.831470 -1.000000 0.555570
v 0.831470 1.000000 0.555570
v 0.707107 -1.000000 0.707107
v 0.707107 1.000000 0.707107
v 0.555570 -1.000000 0.831470
v 0.555570 1.000000 0.831470
v 0.382683 -1.000000 0.923880
v 0.382683 1.000000 0.923880
v 0.195090 -1.000000 0.980785
v 0.195090 1.000000 0.980785
v -0.000000 -1.000000 1.000000
v -0.000000 1.000000 1.000000
v -0.195091 -1.000000 0.980785
v -0.195091 1.000000 0.980785
v -0.382684 -1.000000 0.923879
v -0.382684 1.000000 0.923879
v -0.555571 -1.000000 0.831469
v -0.555571 1.000000 0.831469
v -0.707107 -1.000000 0.707106
v -0.707107 1.000000 0.707106
v -0.831470 -1.000000 0.555570
v -0.831470 1.000000 0.555570
v -0.923880 -1.000000 0.382683
v -0.923880 1.000000 0.382683
v -0.980785 -1.000000 0.195089
v -0.980785 1.000000 0.195089
v -1.000000 -1.000000 -0.000001
v -1.000000 1.000000 -0.000001
v -0.980785 -1.000000 -0.195091
v -0.980785 1.000000 -0.195091
v -0.923879 -1.000000 -0.382684
v -0.923879 1.000000 -0.382684
v -0.831469 -1.000000 -0.555571
v -0.831469 1.000000 -0.555571
v -0.707106 -1.000000 -0.707108
v -0.707106 1.000000 -0.707108
v -0.555569 -1.000000 -0.831470
v -0.555569 1.000000 -0.831470
v -0.382682 -1.000000 -0.923880
v -0.382682 1.000000 -0.923880
v -0.195089 -1.000000 -0.980786
v -0.195089 1.000000 -0.980786
vt 0.499999 0.000081
vt 0.562489 0.000081
vt 0.562490 0.637621
vt 0.624979 0.000081
vt 0.624980 0.637620
vt 0.687469 0.000081
vt 0.687470 0.637620
vt 0.749959 0.000081
vt 0.749960 0.637620
vt 0.812449 0.000080
vt 0.812450 0.637620
vt 0.874938 0.000080
vt 0.874940 0.637620
vt 0.937428 0.000080
vt 0.937430 0.637620
vt 0.999918 0.000080
vt 0.999920 0.637620
vt 0.812450 0.000082
vt 0.499998 0.637619
vt 0.437509 0.637619
vt 0.437510 0.000080
vt 0.375019 0.637619
vt 0.375020 0.000080
vt 0.312529 0.637619
vt 0.312530 0.000080
vt 0.250039 0.637619
vt 0.250040 0.000080
vt 0.187549 0.637619
vt 0.187550 0.000080
vt 0.125060 0.637619
vt 0.125060 0.000080
vt 0.062570 0.637619
vt 0.062570 0.000080
vt 0.000080 0.637619
vt 0.000080 0.000080
vt 0.187551 0.000081
vt 0.112514 0.708542
vt 0.217024 0.718836
vt 0.273352 0.904524
vt 0.258408 0.926888
vt 0.065298 0.945907
vt 0.239388 0.733779
vt 0.239388 0.945909
vt 0.217024 0.960852
vt 0.192174 0.971145
vt 0.165793 0.976393
vt 0.138895 0.976393
vt 0.112514 0.971145
vt 0.087663 0.960852
vt 0.046279 0.926888
vt 0.031336 0.904524
vt 0.021042 0.879674
vt 0.015795 0.853293
vt 0.031336 0.775163
vt 0.015795 0.826395
vt 0.021042 0.800014
vt 0.046279 0.752799
vt 0.065299 0.733779
vt 0.087664 0.718836
vt 0.138895 0.703295
vt 0.165793 0.703295
vt 0.192174 0.708542
vt 0.258408 0.752799
vt 0.273352 0.775164
vt 0.283645 0.800014
vt 0.288893 0.826395
vt 0.288893 0.853293
vt 0.283645 0.879674
vn 0.098000 0.000000 -0.995200
vn 0.290300 0.000000 -0.956900
vn 0.471400 0.000000 -0.881900
vn 0.634400 0.000000 -0.773000
vn 0.773000 0.000000 -0.634400
vn 0.881900 0.000000 -0.471400
vn 0.956900 0.000000 -0.290300
vn 0.995200 0.000000 -0.098000
vn 0.995200 0.000000 0.098000
vn 0.956900 0.000000 0.290300
vn 0.881900 0.000000 0.471400
vn 0.773000 0.000000 0.634400
vn 0.634400 0.000000 0.773000
vn 0.471400 0.000000 0.881900
vn 0.290300 0.000000 0.956900
vn 0.098000 0.000000 0.995200
vn -0.098000 0.000000 0.995200
vn -0.290300 0.000000 0.956900
vn -0.471400 0.000000 0.881900
vn -0.634400 0.000000 0.773000
vn -0.773000 0.000000 0.634400
vn -0.881900 0.000000 0.471400
vn -0.956900 0.000000 0.290300
vn -0.995200 0.000000 0.098000
vn -0.995200 0.000000 -0.098000
vn -0.956900 0.000000 -0.290300
vn -0.881900 0.000000 -0.471400
vn -0.773000 0.000000 -0.634400
vn -0.634400 0.000000 -0.773000
vn -0.471400 0.000000 -0.881900
vn 0.000000 1.000000 0.000000
vn -0.098000 0.000000 -0.995200
vn -0.290300 0.000000 -0.956900
vn 0.000000 -1.000000 0.000000
usemtl wood
s off
f 2/1/1 4/2/1 3/3/1
f 4/2/2 6/4/2 5/5/2
f 6/4/3 8/6/3 7/7/3
f 8/6/4 10/8/4 9/9/4
f 10/8/5 12/10/5 11/11/5
f 12/10/6 14/12/6 13/13/6
f 14/12/7 16/14/7 15/15/7
f 16/14/8 18/16/8 17/17/8
f 18/17/9 20/15/9 19/14/9
f 20/15/10 22/13/10 21/12/10
f 22/13/11 24/11/11 23/18/11
f 24/11/12 26/9/12 25/8/12
f 26/9/13 28/7/13 27/6/13
f 28/7/14 30/5/14 29/4/14
f 30/5/15 32/3/15 31/2/15
f 32/3/16 34/19/16 33/1/16
f 34/19/17 36/20/17 35/21/17
f 36/20/18 38/22/18 37/23/18
f 38/22/19 40/24/19 39/25/19
f 40/24/20 42/26/20 41/27/20
f 42/26/21 44/28/21 43/29/21
f 44/28/22 46/30/22 45/31/22
f 46/30/23 48/32/23 47/33/23
f 48/32/24 50/34/24 49/35/24
f 50/35/25 52/33/25 51/32/25
f 52/33/26 54/31/26 53/30/26
f 54/31/27 56/36/27 55/28/27
f 56/36/28 58/27/28 57/26/28
f 58/27/29 60/25/29 59/24/29
f 60/25/30 62/23/30 61/22/30
f 30/37/31 22/38/31 6/39/31
f 64/21/32 2/1/32 1/19/32
f 62/23/33 64/21/33 63/20/33
f 31/40/34 47/41/34 15/42/34
f 1/19/1 2/1/1 3/3/1
f 3/3/2 4/2/2 5/5/2
f 5/5/3 6/4/3 7/7/3
f 7/7/4 8/6/4 9/9/4
f 9/9/5 10/8/5 11/11/5
f 11/11/6 12/10/6 13/13/6
f 13/13/7 14/12/7 15/15/7
f 15/15/8 16/14/8 17/17/8
f 17/16/9 18/17/9 19/14/9
f 19/14/10 20/15/10 21/12/10
f 21/12/11 22/13/11 23/18/11
f 23/18/12 24/11/12 25/8/12
f 25/8/13 26/9/13 27/6/13
f 27/6/14 28/7/14 29/4/14
f 29/4/15 30/5/15 31/2/15
f 31/2/16 32/3/16 33/1/16
f 33/1/17 34/19/17 35/21/17
f 35/21/18 36/20/18 37/23/18
f 37/23/19 38/22/19 39/25/19
f 39/25/20 40/24/20 41/27/20
f 41/27/21 42/26/21 43/29/21
f 43/29/22 44/28/22 45/31/22
f 45/31/23 46/30/23 47/33/23
f 47/33/24 48/32/24 49/35/24
f 49/34/25 50/35/25 51/32/25
f 51/32/26 52/33/26 53/30/26
f 53/30/27 54/31/27 55/28/27
f 55/28/28 56/36/28 57/26/28
f 57/26/29 58/27/29 59/24/29
f 59/24/30 60/25/30 61/22/30
f 6/39/31 4/40/31 2/43/31
f 2/43/31 64/44/31 6/39/31
f 62/45/31 60/46/31 58/47/31
f 58/47/31 56/48/31 54/49/31
f 54/49/31 52/41/31 50/50/31
f 50/50/31 48/51/31 54/49/31
f 46/52/31 44/53/31 38/54/31
f 42/55/31 40/56/31 38/54/31
f 38/54/31 36/57/31 34/58/31
f 34/58/31 32/59/31 38/54/31
f 30/37/31 28/60/31 26/61/31
f 26/61/31 24/62/31 22/38/31
f 22/38/31 20/42/31 18/63/31
f 18/63/31 16/64/31 14/65/31
f 14/65/31 12/66/31 10/67/31
f 10/67/31 8/68/31 6/39/31
f 6/39/31 64/44/31 62/45/31
f 62/45/31 58/47/31 6/39/31
f 54/49/31 48/51/31 46/52/31
f 44/53/31 42/55/31 38/54/31
f 38/54/31 32/59/31 30/37/31
f 30/37/31 26/61/31 22/38/31
f 22/38/31 18/63/31 14/65/31
f 14/65/31 10/67/31 22/38/31
f 6/39/31 58/47/31 54/49/31
f 54/49/31 46/52/31 38/54/31
f 38/54/31 30/37/31 6/39/31
f 22/38/31 10/67/31 6/39/31
f 6/39/31 54/49/31 38/54/31
f 63/20/32 64/21/32 1/19/32
f 61/22/33 62/23/33 63/20/33
f 63/57/34 1/58/34 3/59/34
f 3/59/34 5/37/34 7/60/34
f 7/60/34 9/61/34 11/62/34
f 11/62/34 13/38/34 7/60/34
f 15/42/34 17/63/34 19/64/34
f 19/64/34 21/65/34 15/42/34
f 23/66/34 25/67/34 31/40/34
f 27/68/34 29/39/34 31/40/34
f 31/40/34 33/43/34 35/44/34
f 35/44/34 37/45/34 31/40/34
f 39/46/34 41/47/34 43/48/34
f 43/48/34 45/49/34 47/41/34
f 47/41/34 49/50/34 51/51/34
f 51/51/34 53/52/34 55/53/34
f 55/53/34 57/55/34 63/57/34
f 59/56/34 61/54/34 63/57/34
f 63/57/34 3/59/34 15/42/34
f 7/60/34 13/38/34 15/42/34
f 15/42/34 21/65/34 23/66/34
f 25/67/34 27/68/34 31/40/34
f 31/40/34 37/45/34 39/46/34
f 39/46/34 43/48/34 47/41/34
f 47/41/34 51/51/34 63/57/34
f 57/55/34 59/56/34 63/57/34
f 3/59/34 7/60/34 15/42/34
f 15/42/34 23/66/34 31/40/34
f 31/40/34 39/46/34 47/41/34
f 51/51/34 55/53/34 63/57/34
f 63/57/34 15/42/34 47/41/34
