# 3ds Max Wavefront OBJ Exporter v0.97b - (c)2007 guruware
# File Created: 13.05.2016 09:14:18

mtllib cockpitterminal.mtl

#
# object Box002
#

v  0.2229 0.0000 0.6126
v  0.2229 0.0000 -0.6990
v  0.2229 0.3977 -0.6990
v  0.2229 0.3977 -0.4146
v  0.2229 0.3977 0.1499
v  0.2229 0.5984 0.3282
v  0.2229 0.5984 0.6126
v  0.0000 0.0000 -0.6990
v  0.0000 0.3977 -0.6990
v  0.5308 0.5984 0.9271
v  0.5308 0.0000 0.9271
v  0.0000 0.5984 0.6130
v  0.0000 0.5984 0.9271
v  0.3690 0.5984 0.9271
v  0.5310 0.0000 1.3835
v  0.3691 0.0000 1.3835
v  0.3690 0.0000 0.9271
v  2.1074 0.5984 0.9311
v  2.1074 0.0000 0.9311
v  2.1074 0.0000 0.4747
v  2.1074 0.5984 0.4747
v  0.0000 0.0000 0.6130
v  0.0000 0.3977 0.1502
v  0.0000 0.5984 0.3285
v  1.2310 0.0000 1.3835
v  1.2310 0.5984 1.3835
v  0.7140 0.5984 1.3835
v  0.7140 0.0000 1.3835
v  1.2310 0.0000 0.9271
v  0.7138 0.0000 0.9271
v  0.7138 0.5984 0.9271
v  0.7139 0.5984 1.1096
v  0.7138 0.4129 0.9271
v  1.2310 0.5984 1.1096
v  0.0000 0.0000 1.3835
v  0.0000 0.0000 0.9271
v  0.5310 0.5984 1.3835
v  0.3691 0.5984 1.3835
v  0.3690 0.5984 1.1555
v  0.3690 0.7952 1.1555
v  0.3691 0.7952 1.3835
v  0.0000 0.7952 1.1555
v  1.4140 0.0000 1.3835
v  1.4140 0.5984 1.3835
v  1.4140 0.0000 0.9271
v  1.4140 0.5984 0.9271
v  1.2310 0.4129 0.9271
v  1.2310 0.5984 0.9271
v  1.7607 0.0000 0.7009
v  1.7607 0.5984 0.7009
v  0.9352 0.5984 -2.7570
v  0.9352 0.5380 -2.7570
v  0.9348 0.5380 -2.4110
v  0.9348 0.5984 -2.4110
v  2.1070 0.0000 -1.5836
v  2.1070 0.5380 -1.5836
v  2.1070 0.5984 -1.5836
v  1.7610 0.0000 -1.5840
v  1.7610 0.5984 -1.5840
v  1.7610 0.5380 -1.5840
v  0.0000 0.5984 1.3835
v  0.0000 0.7952 1.3835
v  -0.2229 0.0000 0.6126
v  -0.2229 0.5984 0.6126
v  -0.2229 0.5984 0.3282
v  -0.2229 0.3977 0.1499
v  -0.2229 0.3977 -0.4146
v  -0.2229 0.3977 -0.6990
v  -0.2229 0.0000 -0.6990
v  -0.5308 0.0000 0.9271
v  -0.5308 0.5984 0.9271
v  -0.3690 0.5984 0.9271
v  -0.5310 0.0000 1.3835
v  -0.3690 0.0000 0.9271
v  -0.3691 0.0000 1.3835
v  -2.1074 0.5984 0.9311
v  -2.1074 0.5984 0.4747
v  -2.1074 0.0000 0.4747
v  -2.1074 0.0000 0.9311
v  -1.2310 0.0000 1.3835
v  -0.7140 0.0000 1.3835
v  -0.7140 0.5984 1.3835
v  -1.2310 0.5984 1.3835
v  -1.2310 0.0000 0.9271
v  -0.7138 0.0000 0.9271
v  -0.7138 0.5984 0.9271
v  -0.7138 0.4129 0.9271
v  -0.7139 0.5984 1.1096
v  -1.2310 0.5984 1.1096
v  -0.3691 0.5984 1.3835
v  -0.5310 0.5984 1.3835
v  -0.3690 0.5984 1.1555
v  -0.3691 0.7952 1.3835
v  -0.3690 0.7952 1.1555
v  -1.4140 0.0000 1.3835
v  -1.4140 0.5984 1.3835
v  -1.4140 0.0000 0.9271
v  -1.4140 0.5984 0.9271
v  -1.2310 0.4129 0.9271
v  -1.2310 0.5984 0.9271
v  -1.7607 0.0000 0.7009
v  -1.7607 0.5984 0.7009
v  -2.1071 0.5984 -2.7568
v  -1.7611 0.5984 -2.7572
v  -1.7611 0.0000 -2.7572
v  -2.1071 0.0000 -2.7568
v  -2.1070 0.5984 -1.5836
v  -2.1070 0.0000 -1.5836
v  -1.7610 0.0000 -1.5840
v  -1.7610 0.5984 -1.5840
v  2.1070 0.7052 -2.7570
v  2.1070 0.7656 -2.7570
v  2.1070 0.7656 -2.0272
v  2.1070 0.7656 -1.6775
v  2.1070 0.7052 -1.6775
v  1.0009 0.7052 -2.4110
v  1.0289 0.7052 -2.7570
v  1.6949 0.7052 -1.6770
v  1.0009 0.7656 -2.4110
v  1.6949 0.7656 -1.6770
v  1.4130 0.7656 -2.7570
v  1.0289 0.7656 -2.7570
v  0.9350 0.0000 -2.4073
v  0.9350 0.0000 -2.7533
v  1.0010 0.0000 -2.7533
v  1.0010 0.0000 -2.4073
v  2.1070 1.6037 -2.0272
v  2.1070 1.6037 -2.7570
v  1.4130 1.6037 -2.7570
v  -2.1070 1.6040 -1.5836
v  -1.7610 1.6040 -1.5840
v  -1.7611 1.6040 -2.7572
v  -2.1071 1.6040 -2.7568
v  -1.9146 1.3355 -1.5840
v  -2.1070 1.3355 -1.5836
v  -2.1070 0.8669 -1.5836
v  -1.9146 0.8669 -1.5840
v  -1.9147 1.3355 -2.7572
v  -1.9147 0.8669 -2.7572
v  -2.1071 1.3355 -2.7568
v  -2.1071 0.8669 -2.7568
v  -2.1070 1.4569 -1.5836
v  -1.7610 1.4569 -1.5840
v  -1.7610 0.7455 -1.5840
v  -2.1070 0.7455 -1.5836
v  -1.7611 1.4569 -2.7572
v  -1.7611 0.7455 -2.7572
v  -2.1071 1.4569 -2.7568
v  -2.1071 0.7455 -2.7568
# 149 vertices

vn 1.0000 0.0000 -0.0000
vn 0.0000 0.0000 -1.0000
vn 0.7146 0.0000 -0.6996
vn 0.0000 1.0000 -0.0000
vn 0.0000 -1.0000 -0.0000
vn -0.0010 0.6642 -0.7476
vn 0.0000 0.6642 -0.7475
vn 0.0000 0.9123 -0.4095
vn -0.0006 0.9120 -0.4101
vn 0.0000 0.0000 1.0000
vn 1.0000 0.0000 -0.0005
vn 1.0000 0.0000 -0.0002
vn 0.0000 0.7574 -0.6529
vn -0.0000 0.7574 -0.6529
vn 1.0000 0.0000 -0.0001
vn -0.0000 0.7013 -0.7129
vn 0.0000 0.7013 -0.7129
vn -1.0000 0.0000 0.0001
vn 0.5464 0.0000 0.8375
vn -0.5464 0.0000 -0.8375
vn -1.0000 0.0000 -0.0011
vn -1.0000 0.0000 -0.0001
vn -1.0000 0.0000 -0.0000
vn -0.7146 0.0000 -0.6996
vn 0.0010 0.6642 -0.7476
vn 0.0006 0.9120 -0.4101
vn -1.0000 0.0000 -0.0005
vn -1.0000 0.0000 -0.0002
vn 1.0000 0.0000 0.0001
vn -0.5464 0.0000 0.8375
vn 0.5464 0.0000 -0.8375
vn -0.0011 0.0000 -1.0000
vn 0.0011 0.0000 -1.0000
vn -0.7266 0.0000 0.6870
vn 0.0010 -0.4895 -0.8720
vn -0.0010 -0.4863 -0.8738
vn -0.8151 0.0000 0.5793
vn -0.8723 0.4890 -0.0010
vn -0.9274 0.3665 -0.0751
vn -0.0010 0.4895 0.8720
vn 0.0010 0.4863 0.8738
vn -0.7246 0.0000 0.6891
vn -1.0000 0.0003 -0.0011
vn -1.0000 -0.0004 -0.0000
vn 0.0101 -0.0056 -0.9999
vn 0.0000 -0.0069 -1.0000
vn 0.9967 0.0006 0.0807
vn 0.9992 -0.0396 -0.0000
vn -0.0174 0.0069 0.9998
vn 0.0000 0.0052 1.0000
vn 0.0020 0.0000 1.0000
vn -0.0020 0.0000 -1.0000
vn 0.0011 0.0000 1.0000
vn 0.0020 -0.0025 1.0000
vn 0.0011 0.0014 1.0000
vn 0.6200 -0.7846 -0.0001
vn 0.6200 0.7846 -0.0001
vn -0.0011 0.0014 -1.0000
vn -0.0020 -0.0025 -1.0000
# 59 vertex normals

vt 0.2481 0.3580 0.0000
vt 0.0961 0.3580 0.0000
vt 0.0961 0.3119 0.0000
vt 0.1290 0.3119 0.0000
vt 0.1945 0.3119 0.0000
vt 0.2152 0.2886 0.0000
vt 0.2481 0.2886 0.0000
vt 0.8612 0.3123 0.0000
vt 0.8612 0.2662 0.0000
vt 0.8870 0.2662 0.0000
vt 0.8870 0.3123 0.0000
vt 0.2846 0.2886 0.0000
vt 0.2846 0.3580 0.0000
vt 0.2285 0.7723 0.0000
vt 0.2543 0.7724 0.0000
vt 0.2543 0.8088 0.0000
vt 0.2116 0.8088 0.0000
vt 0.1928 0.8088 0.0000
vt 0.1928 0.0100 0.0000
vt 0.2115 0.0100 0.0000
vt 0.2116 0.0629 0.0000
vt 0.1928 0.0629 0.0000
vt 0.9691 0.5253 0.0000
vt 0.9900 0.5915 0.0000
vt 0.9396 0.6074 0.0000
vt 0.9186 0.5413 0.0000
vt 0.2285 0.2514 0.0000
vt 0.2285 0.0994 0.0000
vt 0.2543 0.0993 0.0000
vt 0.2543 0.2514 0.0000
vt 0.9589 0.6794 0.0000
vt 0.9589 0.6536 0.0000
vt 0.9900 0.6535 0.0000
vt 0.9900 0.6794 0.0000
vt 0.1116 0.9814 0.0000
vt 0.1116 0.9121 0.0000
vt 0.1716 0.9121 0.0000
vt 0.1716 0.9814 0.0000
vt 0.1116 0.0629 0.0000
vt 0.1116 0.0100 0.0000
vt 0.1716 0.0100 0.0000
vt 0.1716 0.0629 0.0000
vt 0.5756 0.0948 0.0000
vt 0.5756 0.1160 0.0000
vt 0.5541 0.0948 0.0000
vt 0.1116 0.8617 0.0000
vt 0.1116 0.8299 0.0000
vt 0.1716 0.8299 0.0000
vt 0.1716 0.8617 0.0000
vt 0.2543 0.0100 0.0000
vt 0.2543 0.0629 0.0000
vt 0.1928 0.9814 0.0000
vt 0.1928 0.9121 0.0000
vt 0.2115 0.9121 0.0000
vt 0.2115 0.9814 0.0000
vt 0.1928 0.8617 0.0000
vt 0.2116 0.8352 0.0000
vt 0.2115 0.8617 0.0000
vt 0.6550 0.5624 0.0000
vt 0.6779 0.5624 0.0000
vt 0.6779 0.5888 0.0000
vt 0.6550 0.5888 0.0000
vt 0.2543 0.8352 0.0000
vt 0.6550 0.5359 0.0000
vt 0.0904 0.9814 0.0000
vt 0.0904 0.9121 0.0000
vt 0.0904 0.0629 0.0000
vt 0.0904 0.0100 0.0000
vt 0.7844 0.7070 0.0000
vt 0.7844 0.7764 0.0000
vt 0.7632 0.7764 0.0000
vt 0.7632 0.7285 0.0000
vt 0.7632 0.7070 0.0000
vt 0.6820 0.7764 0.0000
vt 0.6820 0.7070 0.0000
vt 0.7033 0.7070 0.0000
vt 0.7033 0.7285 0.0000
vt 0.7033 0.7764 0.0000
vt 0.0904 0.8617 0.0000
vt 0.0904 0.8088 0.0000
vt 0.1116 0.8088 0.0000
vt 0.1716 0.8088 0.0000
vt 0.3842 0.7981 0.0000
vt 0.3842 0.8193 0.0000
vt 0.3627 0.8193 0.0000
vt 0.0100 0.9814 0.0000
vt 0.0100 0.9121 0.0000
vt 0.0502 0.0891 0.0000
vt 0.0100 0.1154 0.0000
vt 0.0100 0.0625 0.0000
vt 0.8246 0.7070 0.0000
vt 0.8246 0.7764 0.0000
vt 0.0100 0.8092 0.0000
vt 0.0100 0.7563 0.0000
vt 0.0502 0.7825 0.0000
vt 0.9216 0.7475 0.0000
vt 0.9146 0.7475 0.0000
vt 0.9146 0.7074 0.0000
vt 0.9216 0.7074 0.0000
vt 0.7120 0.6794 0.0000
vt 0.6932 0.6199 0.0000
vt 0.6911 0.6133 0.0000
vt 0.0502 0.3540 0.0000
vt 0.0101 0.3540 0.0000
vt 0.5262 0.3123 0.0000
vt 0.5262 0.2429 0.0000
vt 0.7912 0.2429 0.0000
vt 0.7912 0.2499 0.0000
vt 0.7912 0.3123 0.0000
vt 0.0101 0.5177 0.0000
vt 0.0502 0.5176 0.0000
vt 0.2285 0.7393 0.0000
vt 0.2543 0.7394 0.0000
vt 0.4489 0.3321 0.0000
vt 0.3504 0.3321 0.0000
vt 0.3505 0.3063 0.0000
vt 0.4489 0.3063 0.0000
vt 0.2543 0.9121 0.0000
vt 0.2543 0.9814 0.0000
vt 0.2543 0.8617 0.0000
vt 0.2115 0.8893 0.0000
vt 0.2543 0.8893 0.0000
vt 0.6533 0.1160 0.0000
vt 0.6533 0.0466 0.0000
vt 0.6862 0.0466 0.0000
vt 0.7069 0.0698 0.0000
vt 0.7723 0.0698 0.0000
vt 0.8053 0.0698 0.0000
vt 0.8053 0.1160 0.0000
vt 0.8353 0.3123 0.0000
vt 0.8353 0.2662 0.0000
vt 0.6168 0.1160 0.0000
vt 0.6168 0.0466 0.0000
vt 0.2802 0.7723 0.0000
vt 0.3159 0.8088 0.0000
vt 0.2971 0.8088 0.0000
vt 0.3159 0.0100 0.0000
vt 0.3159 0.0629 0.0000
vt 0.2971 0.0629 0.0000
vt 0.2971 0.0100 0.0000
vt 0.5262 0.1266 0.0000
vt 0.5792 0.1266 0.0000
vt 0.5792 0.1960 0.0000
vt 0.5262 0.1960 0.0000
vt 0.2802 0.2514 0.0000
vt 0.2802 0.0994 0.0000
vt 0.9588 0.6277 0.0000
vt 0.9900 0.6277 0.0000
vt 0.3971 0.9814 0.0000
vt 0.3371 0.9814 0.0000
vt 0.3371 0.9121 0.0000
vt 0.3971 0.9121 0.0000
vt 0.3971 0.0629 0.0000
vt 0.3371 0.0629 0.0000
vt 0.3371 0.0100 0.0000
vt 0.3971 0.0100 0.0000
vt 0.6031 0.0374 0.0000
vt 0.5816 0.0374 0.0000
vt 0.6031 0.0162 0.0000
vt 0.3971 0.8617 0.0000
vt 0.3371 0.8617 0.0000
vt 0.3371 0.8299 0.0000
vt 0.3971 0.8299 0.0000
vt 0.3159 0.9814 0.0000
vt 0.2971 0.9814 0.0000
vt 0.2971 0.9121 0.0000
vt 0.3159 0.9121 0.0000
vt 0.3159 0.8617 0.0000
vt 0.2971 0.8352 0.0000
vt 0.2971 0.8617 0.0000
vt 0.5848 0.0895 0.0000
vt 0.5848 0.0630 0.0000
vt 0.6076 0.0630 0.0000
vt 0.6076 0.0895 0.0000
vt 0.5848 0.1160 0.0000
vt 0.4183 0.9814 0.0000
vt 0.4183 0.9121 0.0000
vt 0.4183 0.0629 0.0000
vt 0.4183 0.0100 0.0000
vt 0.1337 0.2552 0.0000
vt 0.1125 0.2552 0.0000
vt 0.1125 0.1858 0.0000
vt 0.1337 0.2074 0.0000
vt 0.1337 0.1858 0.0000
vt 0.1937 0.1858 0.0000
vt 0.2149 0.1858 0.0000
vt 0.2149 0.2552 0.0000
vt 0.1937 0.2074 0.0000
vt 0.1937 0.2552 0.0000
vt 0.3971 0.8088 0.0000
vt 0.4183 0.8088 0.0000
vt 0.4183 0.8617 0.0000
vt 0.3371 0.8088 0.0000
vt 0.5756 0.0856 0.0000
vt 0.5541 0.0644 0.0000
vt 0.5756 0.0644 0.0000
vt 0.4987 0.9121 0.0000
vt 0.4987 0.9814 0.0000
vt 0.4987 0.0625 0.0000
vt 0.4987 0.1154 0.0000
vt 0.4585 0.0891 0.0000
vt 0.0723 0.2552 0.0000
vt 0.0723 0.1858 0.0000
vt 0.4585 0.7825 0.0000
vt 0.4987 0.7563 0.0000
vt 0.4987 0.8092 0.0000
vt 0.8092 0.3399 0.0000
vt 0.8092 0.3800 0.0000
vt 0.7398 0.3800 0.0000
vt 0.7398 0.3399 0.0000
vt 0.8178 0.1266 0.0000
vt 0.8178 0.1960 0.0000
vt 0.4986 0.3540 0.0000
vt 0.4585 0.3540 0.0000
vt 0.4489 0.4901 0.0000
vt 0.1840 0.4901 0.0000
vt 0.1840 0.4207 0.0000
vt 0.4489 0.4207 0.0000
vt 0.4585 0.5176 0.0000
vt 0.4986 0.5177 0.0000
vt 0.2802 0.7393 0.0000
vt 0.4489 0.3580 0.0000
vt 0.3505 0.3580 0.0000
vt 0.2971 0.8893 0.0000
vt 0.2277 0.7275 0.0000
vt 0.2277 0.6873 0.0000
vt 0.2901 0.6873 0.0000
vt 0.2901 0.7275 0.0000
vt 0.5577 0.6425 0.0000
vt 0.5555 0.6358 0.0000
vt 0.6362 0.6103 0.0000
vt 0.6749 0.5981 0.0000
vt 0.6770 0.6047 0.0000
vt 0.6545 0.7921 0.0000
vt 0.6512 0.8322 0.0000
vt 0.5262 0.8322 0.0000
vt 0.5262 0.7070 0.0000
vt 0.5740 0.7070 0.0000
vt 0.8870 0.2235 0.0000
vt 0.8870 0.2305 0.0000
vt 0.8019 0.2305 0.0000
vt 0.8019 0.2235 0.0000
vt 0.6739 0.4024 0.0000
vt 0.5571 0.4031 0.0000
vt 0.5262 0.3710 0.0000
vt 0.5529 0.3409 0.0000
vt 0.6700 0.3399 0.0000
vt 0.7031 0.3743 0.0000
vt 0.3130 0.2956 0.0000
vt 0.3130 0.2886 0.0000
vt 0.3239 0.2692 0.0000
vt 0.3239 0.2762 0.0000
vt 0.7797 0.2330 0.0000
vt 0.7396 0.2330 0.0000
vt 0.7396 0.2253 0.0000
vt 0.7797 0.2253 0.0000
vt 0.3095 0.7274 0.0000
vt 0.3095 0.6797 0.0000
vt 0.4295 0.2971 0.0000
vt 0.4225 0.2971 0.0000
vt 0.4419 0.2894 0.0000
vt 0.4489 0.2894 0.0000
vt 0.9410 0.7475 0.0000
vt 0.9410 0.7074 0.0000
vt 0.6524 0.0374 0.0000
vt 0.6123 0.0374 0.0000
vt 0.6123 0.0180 0.0000
vt 0.6601 0.0180 0.0000
vt 0.3684 0.2692 0.0000
vt 0.4489 0.2692 0.0000
vt 0.4489 0.2762 0.0000
vt 0.5262 0.8598 0.0000
vt 0.6109 0.8598 0.0000
vt 0.6109 0.9402 0.0000
vt 0.3684 0.1720 0.0000
vt 0.4489 0.1720 0.0000
vt 0.2123 0.6391 0.0000
vt 0.2123 0.5224 0.0000
vt 0.3095 0.5224 0.0000
vt 0.3095 0.6391 0.0000
vt 0.5262 0.5432 0.0000
vt 0.6069 0.5176 0.0000
vt 0.8522 0.7471 0.0000
vt 0.8522 0.7070 0.0000
vt 0.3207 0.3580 0.0000
vt 0.3130 0.3580 0.0000
vt 0.3183 0.1766 0.0000
vt 0.3585 0.1767 0.0000
vt 0.3589 0.2584 0.0000
vt 0.3189 0.2585 0.0000
vt 0.3601 0.2971 0.0000
vt 0.3601 0.2894 0.0000
vt 0.0788 0.1766 0.0000
vt 0.0789 0.1365 0.0000
vt 0.2149 0.1365 0.0000
vt 0.2148 0.1767 0.0000
vt 0.0480 0.4901 0.0000
vt 0.0480 0.4207 0.0000
vt 0.4986 0.4900 0.0000
vt 0.4585 0.4901 0.0000
vt 0.9538 0.1266 0.0000
vt 0.9538 0.1960 0.0000
vt 0.6117 0.4577 0.0000
vt 0.6117 0.4800 0.0000
vt 0.5574 0.4800 0.0000
vt 0.5574 0.4577 0.0000
vt 0.6820 0.8039 0.0000
vt 0.8181 0.8039 0.0000
vt 0.8181 0.8583 0.0000
vt 0.6820 0.8583 0.0000
vt 0.8947 0.3399 0.0000
vt 0.8947 0.3622 0.0000
vt 0.8404 0.3622 0.0000
vt 0.8404 0.3399 0.0000
vt 0.8178 0.0411 0.0000
vt 0.9538 0.0411 0.0000
vt 0.9538 0.0955 0.0000
vt 0.8178 0.0955 0.0000
vt 0.6428 0.4399 0.0000
vt 0.6428 0.4800 0.0000
vt 0.6258 0.4800 0.0000
vt 0.6258 0.4399 0.0000
vt 0.5262 0.4800 0.0000
vt 0.5262 0.4399 0.0000
vt 0.5433 0.4399 0.0000
vt 0.5433 0.4800 0.0000
vt 0.1601 0.6833 0.0000
vt 0.1601 0.8193 0.0000
vt 0.1431 0.8193 0.0000
vt 0.1431 0.6833 0.0000
vt 0.0480 0.4036 0.0000
vt 0.1840 0.4036 0.0000
vt 0.9258 0.3399 0.0000
vt 0.9258 0.3800 0.0000
vt 0.9088 0.3800 0.0000
vt 0.9088 0.3399 0.0000
vt 0.8263 0.3399 0.0000
vt 0.8263 0.3800 0.0000
vt 0.8178 0.0100 0.0000
vt 0.9538 0.0100 0.0000
vt 0.9538 0.0271 0.0000
vt 0.8178 0.0271 0.0000
vt 0.8178 0.1095 0.0000
vt 0.9538 0.1095 0.0000
vt 0.6693 0.0196 0.0000
vt 0.8053 0.0196 0.0000
vt 0.8053 0.0374 0.0000
vt 0.6693 0.0374 0.0000
vt 0.6779 0.6794 0.0000
vt 0.5418 0.6794 0.0000
vt 0.5418 0.6567 0.0000
vt 0.6779 0.6567 0.0000
# 352 texture coords

g Box002
usemtl 08___Default
s 16
f 1/1/1 2/2/1 3/3/1 
f 1/1/1 3/3/1 4/4/1 
f 1/1/1 4/4/1 5/5/1 
f 1/1/1 5/5/1 6/6/1 
f 1/1/1 6/6/1 7/7/1 
s 32
f 8/8/2 9/9/2 3/10/2 
f 3/10/2 2/11/2 8/8/2 
s off
f 7/7/3 10/12/3 11/13/3 
f 11/13/3 1/1/3 7/7/3 
f 7/14/4 12/15/4 13/16/4 
f 7/14/4 13/16/4 14/17/4 
f 7/14/4 14/17/4 10/18/4 
f 15/19/5 16/20/5 17/21/5 
f 17/21/5 11/22/5 15/19/5 
f 18/23/1 19/24/1 20/25/1 
f 20/25/1 21/26/1 18/23/1 
s 2
f 2/27/5 1/28/5 22/29/5 
f 22/29/5 8/30/5 2/27/5 
s 4
f 5/31/6 23/32/7 24/33/8 
f 24/33/8 6/34/9 5/31/6 
s off
f 25/35/10 26/36/10 27/37/10 
f 27/37/10 28/38/10 25/35/10 
f 29/39/5 25/40/5 28/41/5 
f 28/41/5 30/42/5 29/39/5 
f 31/43/11 32/44/11 33/45/11 
f 26/46/4 34/47/4 32/48/4 
f 32/48/4 27/49/4 26/46/4 
f 35/50/5 36/51/5 17/21/5 
f 17/21/5 16/20/5 35/50/5 
s 8
f 15/52/10 37/53/10 38/54/10 
f 38/54/10 16/55/10 15/52/10 
s off
f 37/56/4 10/18/4 14/17/4 
f 37/56/4 14/17/4 39/57/4 
f 38/58/4 37/56/4 39/57/4 
f 39/59/12 40/60/12 41/61/12 
f 41/61/12 38/62/12 39/59/12 
f 14/17/13 13/16/13 42/63/13 
f 42/63/14 40/57/14 14/17/14 
f 39/59/15 14/64/15 40/60/15 
f 43/65/10 44/66/10 26/36/10 
f 26/36/10 25/35/10 43/65/10 
f 37/53/10 15/52/10 28/38/10 
f 28/38/10 27/37/10 37/53/10 
f 45/67/5 43/68/5 25/40/5 
f 25/40/5 29/39/5 45/67/5 
f 15/19/5 11/22/5 30/42/5 
f 30/42/5 28/41/5 15/19/5 
f 46/69/2 45/70/2 29/71/2 
f 46/69/2 29/71/2 47/72/2 
f 48/73/2 46/69/2 47/72/2 
f 11/74/2 10/75/2 31/76/2 
f 11/74/2 31/76/2 33/77/2 
f 30/78/2 11/74/2 33/77/2 
f 44/79/4 46/80/4 48/81/4 
f 44/79/4 48/81/4 34/47/4 
f 26/46/4 44/79/4 34/47/4 
f 10/18/4 37/56/4 27/49/4 
f 10/18/4 27/49/4 32/48/4 
f 31/82/4 10/18/4 32/48/4 
f 29/71/2 30/78/2 33/77/2 
f 33/77/2 47/72/2 29/71/2 
f 34/73/16 47/72/16 33/77/16 
f 33/77/17 32/76/17 34/73/17 
f 34/83/18 48/84/18 47/85/18 
f 44/66/19 43/65/19 19/86/19 
f 19/86/19 18/87/19 44/66/19 
f 43/68/5 45/67/5 49/88/5 
f 43/68/5 49/88/5 20/89/5 
f 43/68/5 20/89/5 19/90/5 
f 46/69/20 50/91/20 49/92/20 
f 49/92/20 45/70/20 46/69/20 
f 46/80/4 44/79/4 18/93/4 
f 18/93/4 21/94/4 50/95/4 
f 46/80/4 18/93/4 50/95/4 
f 51/96/21 52/97/21 53/98/21 
f 53/98/21 54/99/21 51/96/21 
f 21/26/12 20/25/12 55/100/12 
f 21/26/12 55/100/12 56/101/12 
f 21/26/12 56/101/12 57/102/12 
f 20/89/5 49/88/5 58/103/5 
f 58/103/5 55/104/5 20/89/5 
f 49/105/22 50/106/22 59/107/22 
f 49/105/22 59/107/22 60/108/22 
f 49/105/22 60/108/22 58/109/22 
f 50/95/4 21/94/4 57/110/4 
f 57/110/4 59/111/4 50/95/4 
s 4
f 12/15/4 7/14/4 6/112/9 
f 6/112/9 24/113/8 12/15/4 
s off
f 9/114/4 23/115/4 5/116/4 
f 5/116/4 3/117/4 9/114/4 
s 8
f 16/55/10 38/54/10 61/118/10 
f 61/118/10 35/119/10 16/55/10 
s off
f 22/29/5 1/28/5 11/22/5 
f 22/29/5 11/22/5 17/21/5 
f 22/29/5 17/21/5 36/51/5 
f 41/58/4 40/57/4 42/63/4 
f 42/63/4 62/120/4 41/58/4 
f 38/54/10 41/121/10 62/122/10 
f 62/122/10 61/118/10 38/54/10 
s 16
f 63/123/23 64/124/23 65/125/23 
f 63/123/23 65/125/23 66/126/23 
f 63/123/23 66/126/23 67/127/23 
f 63/123/23 67/127/23 68/128/23 
f 63/123/23 68/128/23 69/129/23 
s 32
f 8/8/2 69/130/2 68/131/2 
f 68/131/2 9/9/2 8/8/2 
s off
f 64/124/24 63/123/24 70/132/24 
f 70/132/24 71/133/24 64/124/24 
f 64/134/4 71/135/4 72/136/4 
f 64/134/4 72/136/4 13/16/4 
f 64/134/4 13/16/4 12/15/4 
f 73/137/5 70/138/5 74/139/5 
f 74/139/5 75/140/5 73/137/5 
f 76/141/23 77/142/23 78/143/23 
f 78/143/23 79/144/23 76/141/23 
s 2
f 69/145/5 8/30/5 22/29/5 
f 22/29/5 63/146/5 69/145/5 
s 4
f 66/147/25 65/148/26 24/33/8 
f 24/33/8 23/32/7 66/147/25 
s off
f 80/149/10 81/150/10 82/151/10 
f 82/151/10 83/152/10 80/149/10 
f 84/153/5 85/154/5 81/155/5 
f 81/155/5 80/156/5 84/153/5 
f 86/157/27 87/158/27 88/159/27 
f 83/160/4 82/161/4 88/162/4 
f 88/162/4 89/163/4 83/160/4 
f 35/50/5 75/140/5 74/139/5 
f 74/139/5 36/51/5 35/50/5 
s 8
f 73/164/10 75/165/10 90/166/10 
f 90/166/10 91/167/10 73/164/10 
s off
f 72/136/4 71/135/4 91/168/4 
f 92/169/4 72/136/4 91/168/4 
f 90/170/4 92/169/4 91/168/4 
f 92/171/28 90/172/28 93/173/28 
f 93/173/28 94/174/28 92/171/28 
f 72/136/13 94/169/13 42/63/13 
f 42/63/13 13/16/13 72/136/13 
f 92/171/22 94/174/22 72/175/22 
f 95/176/10 80/149/10 83/152/10 
f 83/152/10 96/177/10 95/176/10 
f 91/167/10 82/151/10 81/150/10 
f 81/150/10 73/164/10 91/167/10 
f 97/178/5 84/153/5 80/156/5 
f 80/156/5 95/179/5 97/178/5 
f 73/137/5 81/155/5 85/154/5 
f 85/154/5 70/138/5 73/137/5 
f 84/180/2 97/181/2 98/182/2 
f 99/183/2 84/180/2 98/182/2 
f 100/184/2 99/183/2 98/182/2 
f 86/185/2 71/186/2 70/187/2 
f 87/188/2 86/185/2 70/187/2 
f 85/189/2 87/188/2 70/187/2 
f 100/190/4 98/191/4 96/192/4 
f 89/163/4 100/190/4 96/192/4 
f 83/160/4 89/163/4 96/192/4 
f 82/161/4 91/168/4 71/135/4 
f 88/162/4 82/161/4 71/135/4 
f 86/193/4 88/162/4 71/135/4 
f 84/180/2 99/183/2 87/188/2 
f 87/188/2 85/189/2 84/180/2 
f 89/184/17 88/185/17 87/188/17 
f 87/188/17 99/183/17 89/184/17 
f 89/194/29 99/195/29 100/196/29 
f 96/177/30 76/197/30 79/198/30 
f 79/198/30 95/176/30 96/177/30 
f 95/179/5 79/199/5 78/200/5 
f 95/179/5 78/200/5 101/201/5 
f 95/179/5 101/201/5 97/178/5 
f 98/182/31 97/181/31 101/202/31 
f 101/202/31 102/203/31 98/182/31 
f 102/204/4 77/205/4 76/206/4 
f 98/191/4 102/204/4 76/206/4 
f 98/191/4 76/206/4 96/192/4 
f 103/207/32 104/208/32 105/209/32 
f 105/209/32 106/210/32 103/207/32 
f 77/142/28 107/211/28 108/212/28 
f 108/212/28 78/143/28 77/142/28 
f 78/200/5 108/213/5 109/214/5 
f 109/214/5 101/201/5 78/200/5 
f 101/215/15 109/216/15 110/217/15 
f 110/217/15 102/218/15 101/215/15 
f 102/204/4 110/219/4 107/220/4 
f 107/220/4 77/205/4 102/204/4 
s 4
f 12/15/4 24/113/8 65/221/26 
f 65/221/26 64/134/4 12/15/4 
s off
f 9/114/4 68/222/4 66/223/4 
f 66/223/4 23/115/4 9/114/4 
s 8
f 75/165/10 35/119/10 61/118/10 
f 61/118/10 90/166/10 75/165/10 
s off
f 22/29/5 36/51/5 74/139/5 
f 22/29/5 74/139/5 70/138/5 
f 22/29/5 70/138/5 63/146/5 
f 93/170/4 62/120/4 42/63/4 
f 42/63/4 94/169/4 93/170/4 
f 90/166/10 61/118/10 62/122/10 
f 62/122/10 93/224/10 90/166/10 
f 55/225/33 58/226/33 60/227/33 
f 60/227/33 56/228/33 55/225/33 
f 111/229/1 112/230/1 113/231/1 
f 111/229/1 113/231/1 114/232/1 
f 115/233/1 111/229/1 114/232/1 
f 116/234/5 117/235/5 111/236/5 
f 116/234/5 111/236/5 115/237/5 
f 118/238/5 116/234/5 115/237/5 
f 119/239/34 116/240/34 118/241/34 
f 118/241/34 120/242/34 119/239/34 
f 113/243/4 121/244/4 122/245/4 
f 113/243/4 122/245/4 119/246/4 
f 113/243/4 119/246/4 120/247/4 
f 114/248/4 113/243/4 120/247/4 
f 52/249/2 51/250/2 122/251/2 
f 122/251/2 117/252/2 52/249/2 
f 57/102/1 56/101/1 115/233/1 
f 115/233/1 114/232/1 57/102/1 
f 123/253/5 124/254/5 125/255/5 
f 125/255/5 126/256/5 123/253/5 
f 115/257/35 56/228/35 60/227/35 
f 60/227/36 118/258/36 115/257/36 
f 54/259/10 53/260/10 116/261/10 
f 116/261/10 119/262/10 54/259/10 
f 60/108/37 59/107/37 120/242/37 
f 120/242/37 118/241/37 60/108/37 
f 122/263/38 51/96/38 54/99/38 
f 54/99/39 119/264/39 122/263/39 
f 59/265/40 57/266/40 114/267/40 
f 114/267/41 120/268/41 59/265/41 
f 117/252/2 122/251/2 121/269/2 
f 117/252/2 121/269/2 112/270/2 
f 111/271/2 117/252/2 112/270/2 
f 127/272/4 128/273/4 129/274/4 
f 112/270/2 121/269/2 129/275/2 
f 129/275/2 128/276/2 112/270/2 
f 121/277/42 113/278/42 127/279/42 
f 127/279/42 129/280/42 121/277/42 
f 113/231/1 112/230/1 128/281/1 
f 128/281/1 127/282/1 113/231/1 
f 53/98/43 52/97/43 124/283/43 
f 124/283/44 123/284/44 53/98/44 
f 52/249/45 117/252/45 125/285/45 
f 125/285/46 124/286/46 52/249/46 
f 117/287/47 116/288/47 126/289/47 
f 126/289/48 125/290/48 117/287/48 
f 116/261/49 53/260/49 123/291/49 
f 123/291/50 126/292/50 116/261/50 
f 130/293/4 131/294/4 132/295/4 
f 132/295/4 133/296/4 130/293/4 
f 110/217/15 109/216/15 105/297/15 
f 105/297/15 104/298/15 110/217/15 
f 109/214/5 108/213/5 106/299/5 
f 106/299/5 105/300/5 109/214/5 
f 108/212/18 107/211/18 103/301/18 
f 103/301/18 106/302/18 108/212/18 
f 134/303/51 135/304/51 136/305/51 
f 136/305/51 137/306/51 134/303/51 
f 138/307/15 134/308/15 137/309/15 
f 137/309/15 139/310/15 138/307/15 
f 140/311/52 138/312/52 139/313/52 
f 139/313/52 141/314/52 140/311/52 
f 135/315/18 140/316/18 141/317/18 
f 141/317/18 136/318/18 135/315/18 
f 131/319/53 130/320/53 142/321/53 
f 142/321/53 143/322/53 131/319/53 
f 107/323/53 110/324/53 144/325/53 
f 144/325/53 145/326/53 107/323/53 
f 132/327/15 131/328/15 143/329/15 
f 143/329/15 146/330/15 132/327/15 
f 110/217/15 104/298/15 147/331/15 
f 147/331/15 144/332/15 110/217/15 
f 133/333/32 132/334/32 146/335/32 
f 146/335/32 148/336/32 133/333/32 
f 104/208/32 103/207/32 149/337/32 
f 149/337/32 147/338/32 104/208/32 
f 130/339/18 133/340/18 148/341/18 
f 148/341/18 142/342/18 130/339/18 
f 103/301/18 107/211/18 145/343/18 
f 145/343/18 149/344/18 103/301/18 
f 143/322/53 142/321/53 135/304/53 
f 135/304/54 134/303/54 143/322/54 
f 145/326/55 144/325/55 137/306/55 
f 137/306/51 136/305/51 145/326/51 
f 146/345/56 143/346/56 134/347/56 
f 134/347/56 138/348/56 146/345/56 
f 144/349/57 147/350/57 139/351/57 
f 139/351/57 137/352/57 144/349/57 
f 148/336/58 146/335/58 138/312/58 
f 138/312/52 140/311/52 148/336/52 
f 147/338/32 149/337/32 141/314/32 
f 141/314/59 139/313/59 147/338/59 
f 142/342/18 148/341/18 140/316/18 
f 140/316/18 135/315/18 142/342/18 
f 149/344/18 145/343/18 136/318/18 
f 136/318/18 141/317/18 149/344/18 
# 292 faces

