# 3ds Max Wavefront OBJ Exporter v0.97b - (c)2007 guruware
# File Created: 13.05.2016 09:16:37

mtllib cockpitholosphere.mtl

#
# object Sphere001
#

v  0.0000 0.0500 -0.0000
v  -0.0000 0.0433 -0.0250
v  -0.0125 0.0433 -0.0217
v  -0.0217 0.0433 -0.0125
v  -0.0250 0.0433 -0.0000
v  -0.0217 0.0433 0.0125
v  -0.0125 0.0433 0.0217
v  -0.0000 0.0433 0.0250
v  0.0125 0.0433 0.0217
v  0.0217 0.0433 0.0125
v  0.0250 0.0433 0.0000
v  0.0217 0.0433 -0.0125
v  0.0125 0.0433 -0.0217
v  -0.0000 0.0250 -0.0433
v  -0.0217 0.0250 -0.0375
v  -0.0375 0.0250 -0.0217
v  -0.0433 0.0250 -0.0000
v  -0.0375 0.0250 0.0217
v  -0.0217 0.0250 0.0375
v  -0.0000 0.0250 0.0433
v  0.0217 0.0250 0.0375
v  0.0375 0.0250 0.0217
v  0.0433 0.0250 0.0000
v  0.0375 0.0250 -0.0217
v  0.0217 0.0250 -0.0375
v  -0.0000 -0.0000 -0.0500
v  -0.0250 -0.0000 -0.0433
v  -0.0433 -0.0000 -0.0250
v  -0.0500 -0.0000 -0.0000
v  -0.0433 -0.0000 0.0250
v  -0.0250 -0.0000 0.0433
v  -0.0000 -0.0000 0.0500
v  0.0250 -0.0000 0.0433
v  0.0433 -0.0000 0.0250
v  0.0500 -0.0000 0.0000
v  0.0433 -0.0000 -0.0250
v  0.0250 -0.0000 -0.0433
v  -0.0000 -0.0250 -0.0433
v  -0.0217 -0.0250 -0.0375
v  -0.0375 -0.0250 -0.0217
v  -0.0433 -0.0250 -0.0000
v  -0.0375 -0.0250 0.0217
v  -0.0217 -0.0250 0.0375
v  -0.0000 -0.0250 0.0433
v  0.0217 -0.0250 0.0375
v  0.0375 -0.0250 0.0217
v  0.0433 -0.0250 0.0000
v  0.0375 -0.0250 -0.0217
v  0.0217 -0.0250 -0.0375
v  -0.0000 -0.0433 -0.0250
v  -0.0125 -0.0433 -0.0217
v  -0.0217 -0.0433 -0.0125
v  -0.0250 -0.0433 -0.0000
v  -0.0217 -0.0433 0.0125
v  -0.0125 -0.0433 0.0217
v  -0.0000 -0.0433 0.0250
v  0.0125 -0.0433 0.0217
v  0.0217 -0.0433 0.0125
v  0.0250 -0.0433 0.0000
v  0.0217 -0.0433 -0.0125
v  0.0125 -0.0433 -0.0217
v  0.0000 -0.0500 -0.0000
# 62 vertices

vn -0.0692 0.9636 -0.2582
vn -0.1890 0.9636 -0.1890
vn -0.2582 0.9636 -0.0692
vn -0.2582 0.9636 0.0692
vn -0.1890 0.9636 0.1890
vn -0.0692 0.9636 0.2582
vn 0.0692 0.9636 0.2582
vn 0.1890 0.9636 0.1890
vn 0.2582 0.9636 0.0692
vn 0.2582 0.9636 -0.0692
vn 0.1890 0.9636 -0.1890
vn 0.0692 0.9636 -0.2582
vn -0.1862 0.6947 -0.6947
vn -0.5086 0.6947 -0.5086
vn -0.6947 0.6947 -0.1862
vn -0.6947 0.6947 0.1862
vn -0.5086 0.6947 0.5086
vn -0.1862 0.6947 0.6947
vn 0.1862 0.6947 0.6947
vn 0.5086 0.6947 0.5086
vn 0.6947 0.6947 0.1862
vn 0.6947 0.6947 -0.1862
vn 0.5086 0.6947 -0.5086
vn 0.1862 0.6947 -0.6947
vn -0.2506 0.2506 -0.9351
vn -0.6846 0.2506 -0.6846
vn -0.9351 0.2506 -0.2506
vn -0.9351 0.2506 0.2506
vn -0.6846 0.2506 0.6846
vn -0.2506 0.2506 0.9351
vn 0.2506 0.2506 0.9351
vn 0.6845 0.2506 0.6846
vn 0.9351 0.2506 0.2506
vn 0.9351 0.2506 -0.2506
vn 0.6846 0.2506 -0.6845
vn 0.2506 0.2506 -0.9351
vn -0.2506 -0.2506 -0.9351
vn -0.6846 -0.2506 -0.6846
vn -0.9351 -0.2506 -0.2506
vn -0.9351 -0.2506 0.2506
vn -0.6846 -0.2506 0.6846
vn -0.2506 -0.2506 0.9351
vn 0.2506 -0.2506 0.9351
vn 0.6845 -0.2506 0.6846
vn 0.9351 -0.2506 0.2506
vn 0.9351 -0.2506 -0.2506
vn 0.6846 -0.2506 -0.6845
vn 0.2506 -0.2506 -0.9351
vn -0.1862 -0.6947 -0.6947
vn -0.5086 -0.6947 -0.5086
vn -0.6947 -0.6947 -0.1862
vn -0.6947 -0.6947 0.1862
vn -0.5086 -0.6947 0.5086
vn -0.1862 -0.6947 0.6947
vn 0.1862 -0.6947 0.6947
vn 0.5086 -0.6947 0.5086
vn 0.6947 -0.6947 0.1862
vn 0.6947 -0.6947 -0.1862
vn 0.5086 -0.6947 -0.5086
vn 0.1862 -0.6947 -0.6947
vn -0.0692 -0.9636 -0.2582
vn -0.1890 -0.9636 -0.1890
vn -0.2582 -0.9636 -0.0692
vn -0.2582 -0.9636 0.0692
vn -0.1890 -0.9636 0.1890
vn -0.0692 -0.9636 0.2582
vn 0.0692 -0.9636 0.2582
vn 0.1890 -0.9636 0.1890
vn 0.2582 -0.9636 0.0692
vn 0.2582 -0.9636 -0.0692
vn 0.1890 -0.9636 -0.1890
vn 0.0692 -0.9636 -0.2582
# 72 vertex normals

vt 0.0000 1.0000 0.0000
vt 0.0000 0.8333 0.0000
vt 0.0833 0.8333 0.0000
vt 0.0833 1.0000 0.0000
vt 0.1667 0.8333 0.0000
vt 0.1667 1.0000 0.0000
vt 0.2500 0.8333 0.0000
vt 0.2500 1.0000 0.0000
vt 0.3333 0.8333 0.0000
vt 0.3333 1.0000 0.0000
vt 0.4167 0.8333 0.0000
vt 0.4167 1.0000 0.0000
vt 0.5000 0.8333 0.0000
vt 0.5000 1.0000 0.0000
vt 0.5833 0.8333 0.0000
vt 0.5833 1.0000 0.0000
vt 0.6667 0.8333 0.0000
vt 0.6667 1.0000 0.0000
vt 0.7500 0.8333 0.0000
vt 0.7500 1.0000 0.0000
vt 0.8333 0.8333 0.0000
vt 0.8333 1.0000 0.0000
vt 0.9167 0.8333 0.0000
vt 0.9167 1.0000 0.0000
vt 1.0000 0.8333 0.0000
vt 0.0000 0.6667 0.0000
vt 0.0833 0.6667 0.0000
vt 0.1667 0.6667 0.0000
vt 0.2500 0.6667 0.0000
vt 0.3333 0.6667 0.0000
vt 0.4167 0.6667 0.0000
vt 0.5000 0.6667 0.0000
vt 0.5833 0.6667 0.0000
vt 0.6667 0.6667 0.0000
vt 0.7500 0.6667 0.0000
vt 0.8333 0.6667 0.0000
vt 0.9167 0.6667 0.0000
vt 1.0000 0.6667 0.0000
vt 0.0000 0.5000 0.0000
vt 0.0833 0.5000 0.0000
vt 0.1667 0.5000 0.0000
vt 0.2500 0.5000 0.0000
vt 0.3333 0.5000 0.0000
vt 0.4167 0.5000 0.0000
vt 0.5000 0.5000 0.0000
vt 0.5833 0.5000 0.0000
vt 0.6667 0.5000 0.0000
vt 0.7500 0.5000 0.0000
vt 0.8333 0.5000 0.0000
vt 0.9167 0.5000 0.0000
vt 1.0000 0.5000 0.0000
vt 0.0000 0.3333 0.0000
vt 0.0833 0.3333 0.0000
vt 0.1667 0.3333 0.0000
vt 0.2500 0.3333 0.0000
vt 0.3333 0.3333 0.0000
vt 0.4167 0.3333 0.0000
vt 0.5000 0.3333 0.0000
vt 0.5833 0.3333 0.0000
vt 0.6667 0.3333 0.0000
vt 0.7500 0.3333 0.0000
vt 0.8333 0.3333 0.0000
vt 0.9167 0.3333 0.0000
vt 1.0000 0.3333 0.0000
vt 0.0000 0.1667 0.0000
vt 0.0833 0.1667 0.0000
vt 0.1667 0.1667 0.0000
vt 0.2500 0.1667 0.0000
vt 0.3333 0.1667 0.0000
vt 0.4167 0.1667 0.0000
vt 0.5000 0.1667 0.0000
vt 0.5833 0.1667 0.0000
vt 0.6667 0.1667 0.0000
vt 0.7500 0.1667 0.0000
vt 0.8333 0.1667 0.0000
vt 0.9167 0.1667 0.0000
vt 1.0000 0.1667 0.0000
vt 0.0000 0.0000 0.0000
vt 0.0833 0.0000 0.0000
vt 0.1667 0.0000 0.0000
vt 0.2500 0.0000 0.0000
vt 0.3333 0.0000 0.0000
vt 0.4167 0.0000 0.0000
vt 0.5000 0.0000 0.0000
vt 0.5833 0.0000 0.0000
vt 0.6667 0.0000 0.0000
vt 0.7500 0.0000 0.0000
vt 0.8333 0.0000 0.0000
vt 0.9167 0.0000 0.0000
# 89 texture coords

g Sphere001
usemtl 15___Default
s off
f 1/1/1 2/2/1 3/3/1 
f 1/4/2 3/3/2 4/5/2 
f 1/6/3 4/5/3 5/7/3 
f 1/8/4 5/7/4 6/9/4 
f 1/10/5 6/9/5 7/11/5 
f 1/12/6 7/11/6 8/13/6 
f 1/14/7 8/13/7 9/15/7 
f 1/16/8 9/15/8 10/17/8 
f 1/18/9 10/17/9 11/19/9 
f 1/20/10 11/19/10 12/21/10 
f 1/22/11 12/21/11 13/23/11 
f 1/24/12 13/23/12 2/25/12 
f 2/2/13 14/26/13 15/27/13 
f 2/2/13 15/27/13 3/3/13 
f 3/3/14 15/27/14 16/28/14 
f 3/3/14 16/28/14 4/5/14 
f 4/5/15 16/28/15 17/29/15 
f 4/5/15 17/29/15 5/7/15 
f 5/7/16 17/29/16 18/30/16 
f 5/7/16 18/30/16 6/9/16 
f 6/9/17 18/30/17 19/31/17 
f 6/9/17 19/31/17 7/11/17 
f 7/11/18 19/31/18 20/32/18 
f 7/11/18 20/32/18 8/13/18 
f 8/13/19 20/32/19 21/33/19 
f 8/13/19 21/33/19 9/15/19 
f 9/15/20 21/33/20 22/34/20 
f 9/15/20 22/34/20 10/17/20 
f 10/17/21 22/34/21 23/35/21 
f 10/17/21 23/35/21 11/19/21 
f 11/19/22 23/35/22 24/36/22 
f 11/19/22 24/36/22 12/21/22 
f 12/21/23 24/36/23 25/37/23 
f 12/21/23 25/37/23 13/23/23 
f 13/23/24 25/37/24 14/38/24 
f 13/23/24 14/38/24 2/25/24 
f 14/26/25 26/39/25 27/40/25 
f 14/26/25 27/40/25 15/27/25 
f 15/27/26 27/40/26 28/41/26 
f 15/27/26 28/41/26 16/28/26 
f 16/28/27 28/41/27 29/42/27 
f 16/28/27 29/42/27 17/29/27 
f 17/29/28 29/42/28 30/43/28 
f 17/29/28 30/43/28 18/30/28 
f 18/30/29 30/43/29 31/44/29 
f 18/30/29 31/44/29 19/31/29 
f 19/31/30 31/44/30 32/45/30 
f 19/31/30 32/45/30 20/32/30 
f 20/32/31 32/45/31 33/46/31 
f 20/32/31 33/46/31 21/33/31 
f 21/33/32 33/46/32 34/47/32 
f 21/33/32 34/47/32 22/34/32 
f 22/34/33 34/47/33 35/48/33 
f 22/34/33 35/48/33 23/35/33 
f 23/35/34 35/48/34 36/49/34 
f 23/35/34 36/49/34 24/36/34 
f 24/36/35 36/49/35 37/50/35 
f 24/36/35 37/50/35 25/37/35 
f 25/37/36 37/50/36 26/51/36 
f 25/37/36 26/51/36 14/38/36 
f 26/39/37 38/52/37 39/53/37 
f 26/39/37 39/53/37 27/40/37 
f 27/40/38 39/53/38 40/54/38 
f 27/40/38 40/54/38 28/41/38 
f 28/41/39 40/54/39 41/55/39 
f 28/41/39 41/55/39 29/42/39 
f 29/42/40 41/55/40 42/56/40 
f 29/42/40 42/56/40 30/43/40 
f 30/43/41 42/56/41 43/57/41 
f 30/43/41 43/57/41 31/44/41 
f 31/44/42 43/57/42 44/58/42 
f 31/44/42 44/58/42 32/45/42 
f 32/45/43 44/58/43 45/59/43 
f 32/45/43 45/59/43 33/46/43 
f 33/46/44 45/59/44 46/60/44 
f 33/46/44 46/60/44 34/47/44 
f 34/47/45 46/60/45 47/61/45 
f 34/47/45 47/61/45 35/48/45 
f 35/48/46 47/61/46 48/62/46 
f 35/48/46 48/62/46 36/49/46 
f 36/49/47 48/62/47 49/63/47 
f 36/49/47 49/63/47 37/50/47 
f 37/50/48 49/63/48 38/64/48 
f 37/50/48 38/64/48 26/51/48 
f 38/52/49 50/65/49 51/66/49 
f 38/52/49 51/66/49 39/53/49 
f 39/53/50 51/66/50 52/67/50 
f 39/53/50 52/67/50 40/54/50 
f 40/54/51 52/67/51 53/68/51 
f 40/54/51 53/68/51 41/55/51 
f 41/55/52 53/68/52 54/69/52 
f 41/55/52 54/69/52 42/56/52 
f 42/56/53 54/69/53 55/70/53 
f 42/56/53 55/70/53 43/57/53 
f 43/57/54 55/70/54 56/71/54 
f 43/57/54 56/71/54 44/58/54 
f 44/58/55 56/71/55 57/72/55 
f 44/58/55 57/72/55 45/59/55 
f 45/59/56 57/72/56 58/73/56 
f 45/59/56 58/73/56 46/60/56 
f 46/60/57 58/73/57 59/74/57 
f 46/60/57 59/74/57 47/61/57 
f 47/61/58 59/74/58 60/75/58 
f 47/61/58 60/75/58 48/62/58 
f 48/62/59 60/75/59 61/76/59 
f 48/62/59 61/76/59 49/63/59 
f 49/63/60 61/76/60 50/77/60 
f 49/63/60 50/77/60 38/64/60 
f 62/78/61 51/66/61 50/65/61 
f 62/79/62 52/67/62 51/66/62 
f 62/80/63 53/68/63 52/67/63 
f 62/81/64 54/69/64 53/68/64 
f 62/82/65 55/70/65 54/69/65 
f 62/83/66 56/71/66 55/70/66 
f 62/84/67 57/72/67 56/71/67 
f 62/85/68 58/73/68 57/72/68 
f 62/86/69 59/74/69 58/73/69 
f 62/87/70 60/75/70 59/74/70 
f 62/88/71 61/76/71 60/75/71 
f 62/89/72 50/77/72 61/76/72 
# 120 faces

