# 3ds Max Wavefront OBJ Exporter v0.97b - (c)2007 guruware
# File Created: 13.05.2016 09:15:00

mtllib cockpitscreen.mtl

#
# object Box008
#

v  0.2167 0.0000 -0.1898
v  0.2167 -0.0000 0.1898
v  -0.2171 -0.0000 0.1898
v  -0.2171 0.0000 -0.1898
v  -0.0665 0.0749 0.1162
v  0.0661 0.0749 0.1162
v  0.1475 0.0749 0.1072
v  0.1635 0.0749 0.0959
v  0.1748 0.0749 0.0449
v  0.1748 0.0749 -0.0449
v  0.1635 0.0749 -0.0959
v  0.1475 0.0749 -0.1072
v  0.0661 0.0749 -0.1162
v  -0.0665 0.0749 -0.1162
v  -0.1479 0.0749 -0.1072
v  -0.1639 0.0749 -0.0959
v  -0.1753 0.0749 -0.0449
v  -0.1753 0.0749 0.0449
v  -0.1639 0.0749 0.0959
v  -0.1479 0.0749 0.1072
v  0.2167 0.0522 0.1898
v  -0.2171 0.0522 0.1898
v  0.2511 0.0000 -0.1612
v  0.2511 0.0522 -0.1612
v  0.2511 0.0522 0.1573
v  0.2511 -0.0000 0.1573
v  -0.2171 0.0522 -0.1898
v  0.2167 0.0522 -0.1898
v  -0.2515 -0.0000 0.1704
v  -0.2515 0.0522 0.1704
v  -0.2515 0.0522 -0.1481
v  -0.2515 0.0000 -0.1481
v  0.2394 0.0522 0.1819
v  0.2226 0.0522 0.1572
v  -0.2396 0.0522 0.1820
v  0.1622 0.0522 0.1572
v  0.0778 0.0522 0.1572
v  -0.0782 0.0522 0.1572
v  -0.1626 0.0522 0.1572
v  -0.2230 0.0522 0.1572
v  0.2396 0.0522 -0.1824
v  0.2226 0.0522 -0.1572
v  0.2226 0.0522 -0.1145
v  0.2226 0.0522 -0.0550
v  0.2226 0.0522 0.0550
v  0.2226 0.0522 0.1145
v  -0.2398 0.0522 -0.1822
v  -0.2230 0.0522 -0.1572
v  -0.1626 0.0522 -0.1572
v  -0.0782 0.0522 -0.1572
v  0.0778 0.0522 -0.1572
v  0.1622 0.0522 -0.1572
v  -0.2230 0.0522 0.1145
v  -0.2230 0.0522 0.0550
v  -0.2230 0.0522 -0.0550
v  -0.2230 0.0522 -0.1145
v  -0.2073 0.0522 -0.1256
v  -0.1783 0.0522 -0.1461
v  0.1779 0.0522 -0.1461
v  0.2069 0.0522 -0.1256
v  0.2069 0.0522 0.1256
v  0.1779 0.0522 0.1461
v  -0.1783 0.0522 0.1461
v  -0.2073 0.0522 0.1256
v  0.0776 0.0412 0.1517
v  -0.0780 0.0412 0.1517
v  0.1763 0.0412 0.1408
v  0.2028 0.0412 0.1221
v  0.2178 0.0412 0.0544
v  0.2178 0.0412 -0.0544
v  0.2028 0.0412 -0.1221
v  0.1763 0.0412 -0.1408
v  0.0776 0.0412 -0.1517
v  -0.0780 0.0412 -0.1517
v  -0.1767 0.0412 -0.1408
v  -0.2032 0.0412 -0.1221
v  -0.2183 0.0412 -0.0544
v  -0.2183 0.0412 0.0544
v  -0.2032 0.0412 0.1221
v  -0.1767 0.0412 0.1408
v  0.0773 0.0510 0.1463
v  -0.0778 0.0510 0.1463
v  0.1748 0.0510 0.1355
v  0.1986 0.0510 0.1187
v  0.2131 0.0510 0.0537
v  0.2131 0.0510 -0.0537
v  0.1986 0.0510 -0.1187
v  0.1748 0.0510 -0.1355
v  0.0773 0.0510 -0.1463
v  -0.0778 0.0510 -0.1463
v  -0.1752 0.0510 -0.1355
v  -0.1991 0.0510 -0.1187
v  -0.2135 0.0510 -0.0537
v  -0.2135 0.0510 0.0537
v  -0.1991 0.0510 0.1187
v  -0.1752 0.0510 0.1355
v  0.0731 0.0644 0.1336
v  -0.0736 0.0644 0.1336
v  0.1643 0.0644 0.1235
v  0.1845 0.0644 0.1092
v  0.1976 0.0644 0.0503
v  0.1976 0.0644 -0.0503
v  0.1845 0.0644 -0.1092
v  0.1643 0.0644 -0.1235
v  0.0731 0.0644 -0.1336
v  -0.0736 0.0644 -0.1336
v  -0.1647 0.0644 -0.1235
v  -0.1849 0.0644 -0.1092
v  -0.1980 0.0644 -0.0503
v  -0.1980 0.0644 0.0503
v  -0.1849 0.0644 0.1092
v  -0.1647 0.0644 0.1235
v  0.2394 -0.0000 0.1819
v  0.2396 0.0000 -0.1824
v  -0.2398 0.0000 -0.1822
v  -0.2396 -0.0000 0.1820
# 116 vertices

vn 0.0000 -1.0000 -0.0000
vn 0.0000 1.0000 0.0000
vn 0.1473 -0.0000 0.9891
vn -0.1468 -0.0000 0.9892
vn 0.9615 0.0000 -0.2750
vn 0.9693 -0.0000 0.2459
vn -0.1422 0.0000 -0.9898
vn 0.1378 0.0000 -0.9905
vn -0.9076 -0.0000 0.4199
vn -0.9825 0.0000 -0.1864
vn 0.0000 0.4351 -0.9004
vn -0.0865 0.4351 -0.8962
vn -0.4719 0.4351 -0.7668
vn -0.8724 0.4351 -0.2224
vn -0.9004 0.4351 0.0000
vn -0.8725 0.4351 0.2224
vn -0.8724 0.4351 0.2224
vn -0.4719 0.4351 0.7668
vn -0.0865 0.4351 0.8962
vn 0.0000 0.4351 0.9004
vn 0.0865 0.4351 0.8962
vn 0.4719 0.4351 0.7668
vn 0.8724 0.4351 0.2224
vn 0.9004 0.4351 0.0000
vn 0.8724 0.4351 -0.2224
vn 0.4719 0.4351 -0.7668
vn 0.0865 0.4351 -0.8962
vn 0.0000 0.4788 0.8779
vn 0.0844 0.4788 0.8739
vn 0.4601 0.4788 0.7477
vn 0.8507 0.4788 0.2169
vn 0.8779 0.4788 0.0000
vn 0.8507 0.4788 -0.2169
vn 0.4601 0.4788 -0.7477
vn 0.0844 0.4788 -0.8739
vn 0.0000 0.4788 -0.8779
vn -0.0844 0.4788 -0.8739
vn -0.4601 0.4788 -0.7477
vn -0.8507 0.4788 -0.2169
vn -0.8779 0.4788 0.0000
vn -0.8507 0.4788 0.2169
vn -0.4601 0.4788 0.7477
vn -0.0844 0.4788 0.8739
vn 0.0000 0.6796 0.7336
vn 0.0695 0.6910 0.7195
vn 0.3346 0.7697 0.5437
vn 0.5859 0.7965 0.1494
vn 0.6109 0.7917 0.0000
vn 0.5859 0.7965 -0.1494
vn 0.3346 0.7697 -0.5437
vn 0.0695 0.6910 -0.7195
vn 0.0000 0.6796 -0.7336
vn -0.0695 0.6910 -0.7195
vn -0.3346 0.7697 -0.5437
vn -0.5859 0.7965 -0.1494
vn -0.6109 0.7917 0.0000
vn -0.5859 0.7965 0.1494
vn -0.3346 0.7697 0.5437
vn -0.0695 0.6910 0.7195
vn 0.0000 0.8516 0.5242
vn 0.0490 0.8605 0.5070
vn 0.2138 0.9130 0.3475
vn 0.3620 0.9276 0.0923
vn 0.3797 0.9251 0.0000
vn 0.3620 0.9276 -0.0923
vn 0.2138 0.9130 -0.3474
vn 0.0490 0.8605 -0.5070
vn 0.0000 0.8516 -0.5242
vn -0.0490 0.8605 -0.5070
vn -0.2138 0.9130 -0.3474
vn -0.3620 0.9276 -0.0923
vn -0.3797 0.9251 0.0000
vn -0.3620 0.9276 0.0923
vn -0.2138 0.9130 0.3474
vn -0.0490 0.8605 0.5070
vn 0.2913 -0.0000 0.9566
vn -0.2905 -0.0000 0.9569
vn -0.2815 0.0000 -0.9596
vn 0.2729 0.0000 -0.9620
vn 0.8488 0.0000 -0.5287
vn 0.8791 -0.0000 0.4766
vn -0.6473 -0.0000 0.7622
vn -0.9305 0.0000 -0.3663
# 83 vertex normals

vt 0.0454 0.3511 0.0000
vt 0.0454 0.0100 0.0000
vt 0.4922 0.0100 0.0000
vt 0.4922 0.3511 0.0000
vt 0.8386 0.2362 0.0000
vt 0.7020 0.2362 0.0000
vt 0.6181 0.2281 0.0000
vt 0.6017 0.2179 0.0000
vt 0.5900 0.1722 0.0000
vt 0.5900 0.0914 0.0000
vt 0.6017 0.0456 0.0000
vt 0.6181 0.0355 0.0000
vt 0.7020 0.0274 0.0000
vt 0.8386 0.0274 0.0000
vt 0.9224 0.0355 0.0000
vt 0.9389 0.0456 0.0000
vt 0.9506 0.0914 0.0000
vt 0.9506 0.1722 0.0000
vt 0.9389 0.2179 0.0000
vt 0.9224 0.2281 0.0000
vt 0.0334 0.7860 0.0000
vt 0.0334 0.7381 0.0000
vt 0.4802 0.7381 0.0000
vt 0.4802 0.7860 0.0000
vt 0.5696 0.4220 0.0000
vt 0.5696 0.3741 0.0000
vt 0.8557 0.3741 0.0000
vt 0.8557 0.4220 0.0000
vt 0.0334 0.8569 0.0000
vt 0.0334 0.8090 0.0000
vt 0.4801 0.8090 0.0000
vt 0.4801 0.8569 0.0000
vt 0.5506 0.3244 0.0000
vt 0.5506 0.2765 0.0000
vt 0.8368 0.2765 0.0000
vt 0.8368 0.3244 0.0000
vt 0.0454 0.7152 0.0000
vt 0.0220 0.7080 0.0000
vt 0.0393 0.6858 0.0000
vt 0.4922 0.7152 0.0000
vt 0.5153 0.7081 0.0000
vt 0.1016 0.6858 0.0000
vt 0.1884 0.6858 0.0000
vt 0.3492 0.6858 0.0000
vt 0.4360 0.6858 0.0000
vt 0.4983 0.6858 0.0000
vt 0.0100 0.3997 0.0000
vt 0.0218 0.3807 0.0000
vt 0.0393 0.4034 0.0000
vt 0.0100 0.6859 0.0000
vt 0.0393 0.4417 0.0000
vt 0.0393 0.4952 0.0000
vt 0.0393 0.5941 0.0000
vt 0.0393 0.6475 0.0000
vt 0.4922 0.3741 0.0000
vt 0.5156 0.3809 0.0000
vt 0.4983 0.4034 0.0000
vt 0.0454 0.3741 0.0000
vt 0.4360 0.4034 0.0000
vt 0.3492 0.4034 0.0000
vt 0.1884 0.4034 0.0000
vt 0.1016 0.4034 0.0000
vt 0.5276 0.6977 0.0000
vt 0.5276 0.4115 0.0000
vt 0.4983 0.6475 0.0000
vt 0.4983 0.5941 0.0000
vt 0.4983 0.4952 0.0000
vt 0.4983 0.4417 0.0000
vt 0.4821 0.4317 0.0000
vt 0.4522 0.4133 0.0000
vt 0.0854 0.4133 0.0000
vt 0.0555 0.4317 0.0000
vt 0.0555 0.6575 0.0000
vt 0.0854 0.6759 0.0000
vt 0.4522 0.6759 0.0000
vt 0.4821 0.6575 0.0000
vt 0.1430 0.9337 0.0000
vt 0.3037 0.9337 0.0000
vt 0.3034 0.9438 0.0000
vt 0.1432 0.9438 0.0000
vt 0.4067 0.9337 0.0000
vt 0.4051 0.9438 0.0000
vt 0.4366 0.9337 0.0000
vt 0.4324 0.9438 0.0000
vt 0.1968 0.5912 0.0000
vt 0.2602 0.5912 0.0000
vt 0.2608 0.6014 0.0000
vt 0.1999 0.6014 0.0000
vt 0.3591 0.5912 0.0000
vt 0.3585 0.6014 0.0000
vt 0.4226 0.5912 0.0000
vt 0.4194 0.6014 0.0000
vt 0.5506 0.5040 0.0000
vt 0.5805 0.5040 0.0000
vt 0.5821 0.5141 0.0000
vt 0.5548 0.5141 0.0000
vt 0.6835 0.5040 0.0000
vt 0.6838 0.5141 0.0000
vt 0.8442 0.5040 0.0000
vt 0.8440 0.5141 0.0000
vt 0.9473 0.5040 0.0000
vt 0.9457 0.5141 0.0000
vt 0.9772 0.5040 0.0000
vt 0.9730 0.5141 0.0000
vt 0.1968 0.6090 0.0000
vt 0.2602 0.6090 0.0000
vt 0.2608 0.6191 0.0000
vt 0.1999 0.6191 0.0000
vt 0.3591 0.6090 0.0000
vt 0.3585 0.6191 0.0000
vt 0.4226 0.6090 0.0000
vt 0.4194 0.6191 0.0000
vt 0.0100 0.9337 0.0000
vt 0.0399 0.9337 0.0000
vt 0.0415 0.9438 0.0000
vt 0.0142 0.9438 0.0000
vt 0.2992 0.9107 0.0000
vt 0.1390 0.9107 0.0000
vt 0.1392 0.9005 0.0000
vt 0.2990 0.9005 0.0000
vt 0.0373 0.9060 0.0000
vt 0.0389 0.8959 0.0000
vt 0.0100 0.8980 0.0000
vt 0.0142 0.8886 0.0000
vt 0.2083 0.6339 0.0000
vt 0.2707 0.6268 0.0000
vt 0.2713 0.6370 0.0000
vt 0.2114 0.6438 0.0000
vt 0.3661 0.6275 0.0000
vt 0.3654 0.6377 0.0000
vt 0.4226 0.6355 0.0000
vt 0.4196 0.6454 0.0000
vt 0.9039 0.4614 0.0000
vt 0.8733 0.4710 0.0000
vt 0.8713 0.4610 0.0000
vt 0.8989 0.4522 0.0000
vt 0.7794 0.4782 0.0000
vt 0.7786 0.4680 0.0000
vt 0.6371 0.4810 0.0000
vt 0.6368 0.4708 0.0000
vt 0.5506 0.4774 0.0000
vt 0.5514 0.4673 0.0000
vt 0.0928 0.6384 0.0000
vt 0.0831 0.6079 0.0000
vt 0.0934 0.6067 0.0000
vt 0.1021 0.6343 0.0000
vt 0.0895 0.5585 0.0000
vt 0.0995 0.5594 0.0000
vt 0.4583 0.6384 0.0000
vt 0.4547 0.5408 0.0000
vt 0.4649 0.5410 0.0000
vt 0.4685 0.6374 0.0000
vt 0.4598 0.4797 0.0000
vt 0.4698 0.4824 0.0000
vt 0.4281 0.8980 0.0000
vt 0.4009 0.9060 0.0000
vt 0.3993 0.8959 0.0000
vt 0.4239 0.8886 0.0000
vt 0.1435 0.8842 0.0000
vt 0.2946 0.8842 0.0000
vt 0.0497 0.8799 0.0000
vt 0.5901 0.2535 0.0000
vt 0.5655 0.2384 0.0000
vt 0.5801 0.2299 0.0000
vt 0.6009 0.2427 0.0000
vt 0.5506 0.1800 0.0000
vt 0.5665 0.1769 0.0000
vt 0.5506 0.0835 0.0000
vt 0.5665 0.0866 0.0000
vt 0.5655 0.0251 0.0000
vt 0.5801 0.0336 0.0000
vt 0.5901 0.0100 0.0000
vt 0.6009 0.0208 0.0000
vt 0.7758 0.4515 0.0000
vt 0.8626 0.4449 0.0000
vt 0.6417 0.4542 0.0000
vt 0.5618 0.4509 0.0000
vt 0.9505 0.0100 0.0000
vt 0.9751 0.0251 0.0000
vt 0.9605 0.0336 0.0000
vt 0.9397 0.0208 0.0000
vt 0.9900 0.0835 0.0000
vt 0.9740 0.0866 0.0000
vt 0.9900 0.1800 0.0000
vt 0.9740 0.1769 0.0000
vt 0.9751 0.2384 0.0000
vt 0.9605 0.2299 0.0000
vt 0.9505 0.2535 0.0000
vt 0.9397 0.2427 0.0000
vt 0.3885 0.8799 0.0000
vt 0.8458 0.2518 0.0000
vt 0.6947 0.2518 0.0000
vt 0.6947 0.0117 0.0000
vt 0.8458 0.0117 0.0000
vt 0.0100 0.0392 0.0000
vt 0.0220 0.0171 0.0000
vt 0.0100 0.3254 0.0000
vt 0.0218 0.3444 0.0000
vt 0.5276 0.3136 0.0000
vt 0.5156 0.3442 0.0000
vt 0.5276 0.0275 0.0000
vt 0.5153 0.0170 0.0000
vt 0.0100 0.7860 0.0000
vt 0.0100 0.7381 0.0000
vt 0.5034 0.7381 0.0000
vt 0.5034 0.7860 0.0000
vt 0.0100 0.8569 0.0000
vt 0.0100 0.8090 0.0000
vt 0.5037 0.8090 0.0000
vt 0.5037 0.8569 0.0000
vt 0.5506 0.4220 0.0000
vt 0.5506 0.3741 0.0000
vt 0.8778 0.3741 0.0000
vt 0.8778 0.4220 0.0000
vt 0.5156 0.7381 0.0000
vt 0.5156 0.7860 0.0000
vt 0.8674 0.2765 0.0000
vt 0.8674 0.3244 0.0000
# 218 texture coords

g Box008
usemtl 21___Default
s 2
f 1/1/1 2/2/1 3/3/1 
f 3/3/1 4/4/1 1/1/1 
s 4
f 5/5/2 6/6/2 7/7/2 
f 7/7/2 8/8/2 9/9/2 
f 9/9/2 10/10/2 11/11/2 
f 7/7/2 9/9/2 11/11/2 
f 11/11/2 12/12/2 13/13/2 
f 13/13/2 14/14/2 15/15/2 
f 11/11/2 13/13/2 15/15/2 
f 7/7/2 11/11/2 15/15/2 
f 15/15/2 16/16/2 17/17/2 
f 17/17/2 18/18/2 19/19/2 
f 15/15/2 17/17/2 19/19/2 
f 7/7/2 15/15/2 19/19/2 
f 5/5/2 7/7/2 19/19/2 
f 5/5/2 19/19/2 20/20/2 
s 8
f 2/21/3 21/22/3 22/23/4 
f 22/23/4 3/24/4 2/21/3 
s 16
f 23/25/5 24/26/5 25/27/6 
f 25/27/6 26/28/6 23/25/5 
s 32
f 4/29/7 27/30/7 28/31/8 
f 28/31/8 1/32/8 4/29/7 
s 64
f 29/33/9 30/34/9 31/35/10 
f 31/35/10 32/36/10 29/33/9 
s off
f 21/37/2 33/38/2 34/39/2 
f 22/40/2 21/37/2 34/39/2 
f 35/41/2 22/40/2 34/39/2 
f 35/41/2 34/39/2 36/42/2 
f 35/41/2 36/42/2 37/43/2 
f 35/41/2 37/43/2 38/44/2 
f 35/41/2 38/44/2 39/45/2 
f 35/41/2 39/45/2 40/46/2 
f 24/47/2 41/48/2 42/49/2 
f 25/50/2 24/47/2 42/49/2 
f 33/38/2 25/50/2 42/49/2 
f 33/38/2 42/49/2 43/51/2 
f 33/38/2 43/51/2 44/52/2 
f 33/38/2 44/52/2 45/53/2 
f 33/38/2 45/53/2 46/54/2 
f 33/38/2 46/54/2 34/39/2 
f 27/55/2 47/56/2 48/57/2 
f 28/58/2 27/55/2 48/57/2 
f 41/48/2 28/58/2 48/57/2 
f 41/48/2 48/57/2 49/59/2 
f 41/48/2 49/59/2 50/60/2 
f 41/48/2 50/60/2 51/61/2 
f 41/48/2 51/61/2 52/62/2 
f 41/48/2 52/62/2 42/49/2 
f 30/63/2 35/41/2 40/46/2 
f 31/64/2 30/63/2 40/46/2 
f 47/56/2 31/64/2 40/46/2 
f 47/56/2 40/46/2 53/65/2 
f 47/56/2 53/65/2 54/66/2 
f 47/56/2 54/66/2 55/67/2 
f 47/56/2 55/67/2 56/68/2 
f 47/56/2 56/68/2 48/57/2 
s 4
f 48/57/2 56/68/2 57/69/2 
f 48/57/2 57/69/2 58/70/2 
f 49/59/2 48/57/2 58/70/2 
f 42/49/2 52/62/2 59/71/2 
f 42/49/2 59/71/2 60/72/2 
f 43/51/2 42/49/2 60/72/2 
f 34/39/2 46/54/2 61/73/2 
f 34/39/2 61/73/2 62/74/2 
f 36/42/2 34/39/2 62/74/2 
f 40/46/2 39/45/2 63/75/2 
f 40/46/2 63/75/2 64/76/2 
f 53/65/2 40/46/2 64/76/2 
f 54/66/2 53/65/2 64/76/2 
f 57/69/2 56/68/2 55/67/2 
f 50/60/2 49/59/2 58/70/2 
f 59/71/2 52/62/2 51/61/2 
f 44/52/2 43/51/2 60/72/2 
f 61/73/2 46/54/2 45/53/2 
f 37/43/2 36/42/2 62/74/2 
f 63/75/2 39/45/2 38/44/2 
s off
f 38/77/11 37/78/11 65/79/11 
f 65/79/11 66/80/11 38/77/11 
f 37/78/12 62/81/12 67/82/12 
f 67/82/12 65/79/12 37/78/12 
f 62/81/13 61/83/13 68/84/13 
f 68/84/13 67/82/13 62/81/13 
f 61/85/14 45/86/14 69/87/14 
f 69/87/14 68/88/14 61/85/14 
f 45/86/15 44/89/15 70/90/15 
f 70/90/15 69/87/15 45/86/15 
f 44/89/16 60/91/16 71/92/16 
f 71/92/17 70/90/17 44/89/17 
f 60/93/18 59/94/18 72/95/18 
f 72/95/18 71/96/18 60/93/18 
f 59/94/19 51/97/19 73/98/19 
f 73/98/19 72/95/19 59/94/19 
f 51/97/20 50/99/20 74/100/20 
f 74/100/20 73/98/20 51/97/20 
f 50/99/21 58/101/21 75/102/21 
f 75/102/21 74/100/21 50/99/21 
f 58/101/22 57/103/22 76/104/22 
f 76/104/22 75/102/22 58/101/22 
f 57/105/23 55/106/23 77/107/23 
f 77/107/23 76/108/23 57/105/23 
f 55/106/24 54/109/24 78/110/24 
f 78/110/24 77/107/24 55/106/24 
f 54/109/25 64/111/25 79/112/25 
f 79/112/25 78/110/25 54/109/25 
f 64/113/26 63/114/26 80/115/26 
f 80/115/26 79/116/26 64/113/26 
f 63/114/27 38/77/27 66/80/27 
f 66/80/27 80/115/27 63/114/27 
f 66/117/28 65/118/28 81/119/28 
f 81/119/28 82/120/28 66/117/28 
f 65/118/29 67/121/29 83/122/29 
f 83/122/29 81/119/29 65/118/29 
f 67/121/30 68/123/30 84/124/30 
f 84/124/30 83/122/30 67/121/30 
f 68/125/31 69/126/31 85/127/31 
f 85/127/31 84/128/31 68/125/31 
f 69/126/32 70/129/32 86/130/32 
f 86/130/32 85/127/32 69/126/32 
f 70/129/33 71/131/33 87/132/33 
f 87/132/33 86/130/33 70/129/33 
f 71/133/34 72/134/34 88/135/34 
f 88/135/34 87/136/34 71/133/34 
f 72/134/35 73/137/35 89/138/35 
f 89/138/35 88/135/35 72/134/35 
f 73/137/36 74/139/36 90/140/36 
f 90/140/36 89/138/36 73/137/36 
f 74/139/37 75/141/37 91/142/37 
f 91/142/37 90/140/37 74/139/37 
f 75/143/38 76/144/38 92/145/38 
f 92/145/38 91/146/38 75/143/38 
f 76/144/39 77/147/39 93/148/39 
f 93/148/39 92/145/39 76/144/39 
f 77/149/40 78/150/40 94/151/40 
f 94/151/40 93/152/40 77/149/40 
f 78/150/41 79/153/41 95/154/41 
f 95/154/41 94/151/41 78/150/41 
f 79/155/42 80/156/42 96/157/42 
f 96/157/42 95/158/42 79/155/42 
f 80/156/43 66/117/43 82/120/43 
f 82/120/43 96/157/43 80/156/43 
f 82/120/44 81/119/44 97/159/44 
f 97/159/44 98/160/44 82/120/44 
f 81/119/45 83/122/45 99/161/45 
f 99/161/45 97/159/45 81/119/45 
f 83/162/46 84/163/46 100/164/46 
f 100/164/46 99/165/46 83/162/46 
f 84/163/47 85/166/47 101/167/47 
f 101/167/47 100/164/47 84/163/47 
f 85/166/48 86/168/48 102/169/48 
f 102/169/48 101/167/48 85/166/48 
f 86/168/49 87/170/49 103/171/49 
f 103/171/49 102/169/49 86/168/49 
f 87/170/50 88/172/50 104/173/50 
f 104/173/50 103/171/50 87/170/50 
f 88/135/51 89/138/51 105/174/51 
f 105/174/51 104/175/51 88/135/51 
f 89/138/52 90/140/52 106/176/52 
f 106/176/52 105/174/52 89/138/52 
f 90/140/53 91/142/53 107/177/53 
f 107/177/53 106/176/53 90/140/53 
f 91/178/54 92/179/54 108/180/54 
f 108/180/54 107/181/54 91/178/54 
f 92/179/55 93/182/55 109/183/55 
f 109/183/55 108/180/55 92/179/55 
f 93/182/56 94/184/56 110/185/56 
f 110/185/56 109/183/56 93/182/56 
f 94/184/57 95/186/57 111/187/57 
f 111/187/57 110/185/57 94/184/57 
f 95/186/58 96/188/58 112/189/58 
f 112/189/58 111/187/58 95/186/58 
f 96/157/59 82/120/59 98/160/59 
f 98/160/59 112/190/59 96/157/59 
f 98/191/60 97/192/60 6/6/60 
f 6/6/60 5/5/60 98/191/60 
f 97/192/61 99/165/61 7/7/61 
f 7/7/61 6/6/61 97/192/61 
f 99/165/62 100/164/62 8/8/62 
f 8/8/62 7/7/62 99/165/62 
f 100/164/63 101/167/63 9/9/63 
f 9/9/63 8/8/63 100/164/63 
f 101/167/64 102/169/64 10/10/64 
f 10/10/64 9/9/64 101/167/64 
f 102/169/65 103/171/65 11/11/65 
f 11/11/65 10/10/65 102/169/65 
f 103/171/66 104/173/66 12/12/66 
f 12/12/66 11/11/66 103/171/66 
f 104/173/67 105/193/67 13/13/67 
f 13/13/67 12/12/67 104/173/67 
f 105/193/68 106/194/68 14/14/68 
f 14/14/68 13/13/68 105/193/68 
f 106/194/69 107/181/69 15/15/69 
f 15/15/69 14/14/69 106/194/69 
f 107/181/70 108/180/70 16/16/70 
f 16/16/70 15/15/70 107/181/70 
f 108/180/71 109/183/71 17/17/71 
f 17/17/71 16/16/71 108/180/71 
f 109/183/72 110/185/72 18/18/72 
f 18/18/72 17/17/72 109/183/72 
f 110/185/73 111/187/73 19/19/73 
f 19/19/73 18/18/73 110/185/73 
f 111/187/74 112/189/74 20/20/74 
f 20/20/74 19/19/74 111/187/74 
f 112/189/75 98/191/75 5/5/75 
f 5/5/75 20/20/75 112/189/75 
s 2
f 26/195/1 113/196/1 2/2/1 
f 23/197/1 26/195/1 2/2/1 
f 114/198/1 23/197/1 2/2/1 
f 1/1/1 114/198/1 2/2/1 
f 32/199/1 115/200/1 4/4/1 
f 29/201/1 32/199/1 4/4/1 
f 116/202/1 29/201/1 4/4/1 
f 3/3/1 116/202/1 4/4/1 
s 8
f 113/203/76 33/204/76 21/22/3 
f 21/22/3 2/21/3 113/203/76 
f 35/205/77 116/206/77 3/24/4 
f 3/24/4 22/23/4 35/205/77 
s 32
f 115/207/78 47/208/78 27/30/7 
f 27/30/7 4/29/7 115/207/78 
f 41/209/79 114/210/79 1/32/8 
f 1/32/8 28/31/8 41/209/79 
s 16
f 114/211/80 41/212/80 24/26/5 
f 24/26/5 23/25/5 114/211/80 
f 33/213/81 113/214/81 26/28/6 
f 26/28/6 25/27/6 33/213/81 
s 64
f 116/206/82 35/205/82 30/215/9 
f 30/215/9 29/216/9 116/206/82 
f 47/217/83 115/218/83 32/36/10 
f 32/36/10 31/35/10 47/217/83 
# 228 faces

