# 3ds Max Wavefront OBJ Exporter v0.97b - (c)2007 guruware
# File Created: 13.05.2016 09:16:20

mtllib cockpitholo.mtl

#
# object Cone001
#

v  0.0000 0.0000 -0.0000
v  0.1732 0.1282 -0.1000
v  0.2000 0.1282 -0.0000
v  0.1000 0.1282 -0.1732
v  -0.0000 0.1282 -0.2000
v  -0.1000 0.1282 -0.1732
v  -0.1732 0.1282 -0.1000
v  -0.2000 0.1282 -0.0000
v  -0.1732 0.1282 0.1000
v  -0.1000 0.1282 0.1732
v  -0.0000 0.1282 0.2000
v  0.1000 0.1282 0.1732
v  0.1732 0.1282 0.1000
v  0.0000 0.1282 -0.0000
# 14 vertices

vn 1.0000 0.0000 -0.0000
vn 0.6947 -0.6947 -0.1862
vn 0.6124 -0.7071 -0.3536
vn 0.7071 -0.7071 0.0000
vn 0.5086 -0.6947 -0.5086
vn 0.3536 -0.7071 -0.6124
vn 0.1862 -0.6947 -0.6947
vn -0.0000 -0.7071 -0.7071
vn -0.1862 -0.6947 -0.6947
vn -0.3536 -0.7071 -0.6124
vn -0.5086 -0.6947 -0.5086
vn -0.6124 -0.7071 -0.3536
vn -0.6947 -0.6947 -0.1862
vn -0.7071 -0.7071 -0.0000
vn -0.6947 -0.6947 0.1862
vn -0.6124 -0.7071 0.3536
vn -0.5086 -0.6947 0.5086
vn -0.3536 -0.7071 0.6124
vn -0.1862 -0.6947 0.6947
vn -0.0000 -0.7071 0.7071
vn 0.1862 -0.6947 0.6947
vn 0.3536 -0.7071 0.6124
vn 0.5086 -0.6947 0.5086
vn 0.6124 -0.7071 0.3536
vn 0.6947 -0.6947 0.1862
vn 0.0000 1.0000 -0.0000
# 26 vertex normals

vt 0.5000 0.0000 0.0000
vt 0.8333 1.0000 1.0000
vt 0.7500 1.0000 1.0000
vt 0.9167 1.0000 1.0000
vt 0.0000 1.0000 1.0000
vt -0.0833 1.0000 1.0000
vt 0.0833 1.0000 1.0000
vt 0.1667 1.0000 1.0000
vt 0.2500 1.0000 1.0000
vt 0.3333 1.0000 1.0000
vt 0.4167 1.0000 1.0000
vt 0.5000 1.0000 1.0000
vt 0.5833 1.0000 1.0000
vt 0.6667 1.0000 1.0000
vt 0.5000 1.0000 0.0000
# 15 texture coords

g Cone001
usemtl 15___Default
s 1
f 1/1/1 1/1/1 1/1/1 
f 1/1/1 1/1/1 1/1/1 
f 1/1/1 1/1/1 1/1/1 
f 1/1/1 1/1/1 1/1/1 
f 1/1/1 1/1/1 1/1/1 
f 1/1/1 1/1/1 1/1/1 
f 1/1/1 1/1/1 1/1/1 
f 1/1/1 1/1/1 1/1/1 
f 1/1/1 1/1/1 1/1/1 
f 1/1/1 1/1/1 1/1/1 
f 1/1/1 1/1/1 1/1/1 
f 1/1/1 1/1/1 1/1/1 
s 8
f 1/1/2 2/2/3 3/3/4 
f 1/1/2 1/1/5 2/2/3 
f 1/1/5 4/4/6 2/2/3 
f 1/1/5 1/1/7 4/4/6 
f 1/1/7 5/5/8 4/6/6 
f 1/1/7 1/1/9 5/5/8 
f 1/1/9 6/7/10 5/5/8 
f 1/1/9 1/1/11 6/7/10 
f 1/1/11 7/8/12 6/7/10 
f 1/1/11 1/1/13 7/8/12 
f 1/1/13 8/9/14 7/8/12 
f 1/1/13 1/1/15 8/9/14 
f 1/1/15 9/10/16 8/9/14 
f 1/1/15 1/1/17 9/10/16 
f 1/1/17 10/11/18 9/10/16 
f 1/1/17 1/1/19 10/11/18 
f 1/1/19 11/12/20 10/11/18 
f 1/1/19 1/1/21 11/12/20 
f 1/1/21 12/13/22 11/12/20 
f 1/1/21 1/1/23 12/13/22 
f 1/1/23 13/14/24 12/13/22 
f 1/1/23 1/1/25 13/14/24 
f 1/1/25 3/3/4 13/14/24 
f 1/1/25 1/1/2 3/3/4 
s 1
f 14/15/26 3/3/26 2/2/26 
f 14/15/26 2/2/26 4/4/26 
f 14/15/26 4/6/26 5/5/26 
f 14/15/26 5/5/26 6/7/26 
f 14/15/26 6/7/26 7/8/26 
f 14/15/26 7/8/26 8/9/26 
f 14/15/26 8/9/26 9/10/26 
f 14/15/26 9/10/26 10/11/26 
f 14/15/26 10/11/26 11/12/26 
f 14/15/26 11/12/26 12/13/26 
f 14/15/26 12/13/26 13/14/26 
f 14/15/26 13/14/26 3/3/26 
# 48 faces

