# 3ds Max Wavefront OBJ Exporter v0.97b - (c)2007 guruware
# File Created: 13.05.2016 09:17:23

mtllib cockpitfloor.mtl

#
# object Plane001
#

v  -2.7356 0.0000 -2.1850
v  -2.7356 0.0000 2.1850
v  2.7356 0.0000 -2.1850
v  2.7356 0.0000 2.1850
# 4 vertices

vn 0.0000 1.0000 -0.0000
# 1 vertex normals

vt 0.0000 1.0000 0.0000
vt 0.0000 0.0000 0.0000
vt 1.0000 1.0000 0.0000
vt 1.0000 0.0000 0.0000
# 4 texture coords

g Plane001
usemtl 10___Default
s 1
f 1/1/1 2/2/1 3/3/1 
f 4/4/1 3/3/1 2/2/1 
# 2 faces

