# 3ds Max Wavefront OBJ Exporter v0.97b - (c)2007 guruware
# File Created: 13.05.2016 09:15:32

mtllib cockpitsteer.mtl

#
# object Box011
#

v  0.0253 0.0313 -0.1913
v  0.0253 0.0888 -0.1913
v  0.0253 0.0888 0.1222
v  0.0253 0.0313 0.1222
v  0.0000 0.0000 -0.2986
v  0.0000 0.0932 -0.2986
v  0.0466 0.0932 -0.2986
v  0.0466 0.0000 -0.2986
v  0.0000 0.0932 -0.2550
v  0.0466 0.0932 -0.2550
v  0.2161 0.0173 -0.3319
v  0.2161 0.0759 -0.3319
v  0.2161 0.0759 -0.2725
v  0.2161 0.0173 -0.2725
v  0.0466 0.0000 -0.2550
v  0.0000 0.0000 -0.2550
v  0.1597 0.0173 -0.3319
v  0.1597 0.0173 -0.2725
v  0.1597 0.0759 -0.3319
v  0.1597 0.0759 -0.2725
v  0.0985 -0.0810 -0.2878
v  0.0985 -0.0810 -0.3166
v  0.1248 -0.1098 -0.3166
v  0.1248 -0.1098 -0.2878
v  0.1487 0.1518 -0.2892
v  0.1487 0.1518 -0.3152
v  0.1831 0.1897 -0.2892
v  0.1831 0.1897 -0.3152
v  0.1428 -0.0322 -0.3319
v  0.1428 -0.0322 -0.2725
v  0.1867 -0.0676 -0.3319
v  0.1861 -0.0642 -0.2936
v  0.0000 0.0313 0.1222
v  0.0000 0.0313 -0.1913
v  0.0000 0.0888 -0.1913
v  0.0000 0.0888 0.1222
v  -0.0253 0.0313 -0.1913
v  -0.0253 0.0313 0.1222
v  -0.0253 0.0888 0.1222
v  -0.0253 0.0888 -0.1913
v  -0.0466 0.0000 -0.2986
v  -0.0466 0.0932 -0.2986
v  -0.0466 0.0932 -0.2550
v  -0.2161 0.0173 -0.3319
v  -0.2161 0.0173 -0.2725
v  -0.2161 0.0759 -0.2725
v  -0.2161 0.0759 -0.3319
v  -0.0466 0.0000 -0.2550
v  -0.1597 0.0173 -0.2725
v  -0.1597 0.0173 -0.3319
v  -0.1597 0.0759 -0.3319
v  -0.1597 0.0759 -0.2725
v  -0.0985 -0.0810 -0.2878
v  -0.1248 -0.1098 -0.2878
v  -0.1248 -0.1098 -0.3166
v  -0.0985 -0.0810 -0.3166
v  -0.1487 0.1518 -0.3152
v  -0.1487 0.1518 -0.2892
v  -0.1831 0.1897 -0.2892
v  -0.1831 0.1897 -0.3152
v  -0.1428 -0.0322 -0.2725
v  -0.1428 -0.0322 -0.3319
v  -0.1867 -0.0676 -0.3319
v  -0.1861 -0.0642 -0.2936
# 64 vertices

vn 0.9837 -0.0000 0.1796
vn 0.9866 -0.0000 0.1634
vn 1.0000 0.0000 -0.0000
vn 0.0000 0.0000 -1.0000
vn 0.0000 1.0000 -0.0000
vn 0.0000 0.9994 0.0339
vn -0.0000 0.9995 0.0301
vn 0.0000 -1.0000 -0.0000
vn 0.0000 -0.9791 0.2032
vn 0.0000 -0.9741 0.2263
vn 0.1510 -0.9885 -0.0000
vn -0.2821 0.0000 -0.9594
vn 0.1510 0.9885 -0.0000
vn 0.1528 -0.0000 0.9883
vn -0.7386 -0.6741 -0.0000
vn 0.0000 -0.0000 1.0000
vn -0.9898 -0.1427 -0.0000
vn 0.0000 0.1450 0.9894
vn -0.2009 0.1824 0.9625
vn 0.9604 0.2785 -0.0000
vn 0.0000 0.2145 -0.9767
vn -0.1207 0.1096 -0.9866
vn -0.9462 0.3237 -0.0000
vn 0.9384 -0.3455 -0.0000
vn 0.9440 -0.3271 0.0437
vn 0.0000 0.0000 1.0000
vn 0.2146 -0.3182 0.9234
vn -0.7403 0.6722 -0.0000
vn -0.7411 0.6714 -0.0000
vn -0.1308 -0.1624 -0.9780
vn -0.1676 -0.1530 -0.9739
vn 0.5993 -0.7965 0.0801
vn 0.5628 -0.8266 -0.0000
vn 0.1383 -0.4078 0.9025
vn 0.0563 0.0514 0.9971
vn 0.9487 -0.0000 0.3162
vn 0.0000 -0.9694 0.2454
vn -0.0000 0.9993 0.0371
vn -0.9837 -0.0000 0.1796
vn -1.0000 0.0000 -0.0000
vn -0.9866 -0.0000 0.1634
vn 0.0000 0.9995 0.0301
vn -0.0000 -0.9791 0.2032
vn -0.1510 -0.9885 -0.0000
vn 0.2821 0.0000 -0.9594
vn -0.1510 0.9885 -0.0000
vn -0.1528 -0.0000 0.9883
vn 0.7386 -0.6741 -0.0000
vn 0.9898 -0.1427 -0.0000
vn 0.2009 0.1824 0.9625
vn -0.9604 0.2785 -0.0000
vn 0.1207 0.1096 -0.9866
vn 0.9462 0.3237 -0.0000
vn -0.9440 -0.3271 0.0437
vn -0.9384 -0.3455 -0.0000
vn -0.2146 -0.3182 0.9234
vn 0.7403 0.6722 -0.0000
vn 0.7411 0.6714 -0.0000
vn 0.1676 -0.1530 -0.9739
vn 0.1308 -0.1624 -0.9780
vn -0.5628 -0.8266 -0.0000
vn -0.5993 -0.7965 0.0801
vn -0.0563 0.0514 0.9971
vn -0.1383 -0.4078 0.9025
vn -0.9487 -0.0000 0.3162
vn -0.0000 -0.9694 0.2454
vn 0.0000 0.9993 0.0371
# 67 vertex normals

vt 0.5968 0.7185 0.0000
vt 0.5968 0.6572 0.0000
vt 0.9313 0.6572 0.0000
vt 0.9313 0.7185 0.0000
vt 0.7594 0.2124 0.0000
vt 0.7594 0.1130 0.0000
vt 0.8091 0.1130 0.0000
vt 0.8091 0.2124 0.0000
vt 0.4589 0.1307 0.0000
vt 0.4589 0.1804 0.0000
vt 0.4124 0.1804 0.0000
vt 0.4124 0.1307 0.0000
vt 0.2632 0.4565 0.0000
vt 0.3258 0.4565 0.0000
vt 0.3258 0.5198 0.0000
vt 0.2632 0.5198 0.0000
vt 0.0455 0.5059 0.0000
vt 0.0920 0.5059 0.0000
vt 0.0920 0.5556 0.0000
vt 0.0455 0.5556 0.0000
vt 0.0100 0.3852 0.0000
vt 0.0733 0.3852 0.0000
vt 0.9298 0.1314 0.0000
vt 0.9298 0.1939 0.0000
vt 0.4311 0.0100 0.0000
vt 0.4944 0.0100 0.0000
vt 0.1884 0.7609 0.0000
vt 0.2455 0.8422 0.0000
vt 0.1362 0.8965 0.0000
vt 0.1003 0.8454 0.0000
vt 0.2034 0.6790 0.0000
vt 0.2034 0.7096 0.0000
vt 0.1727 0.7096 0.0000
vt 0.1727 0.6790 0.0000
vt 0.9900 0.1314 0.0000
vt 0.9900 0.1939 0.0000
vt 0.0870 0.9312 0.0000
vt 0.0510 0.8800 0.0000
vt 0.3888 0.6045 0.0000
vt 0.4521 0.6045 0.0000
vt 0.4343 0.6856 0.0000
vt 0.4066 0.6856 0.0000
vt 0.0100 0.7604 0.0000
vt 0.0632 0.7724 0.0000
vt 0.4472 0.4743 0.0000
vt 0.4472 0.5020 0.0000
vt 0.9181 0.0504 0.0000
vt 0.9548 0.0100 0.0000
vt 0.3082 0.6626 0.0000
vt 0.3082 0.7259 0.0000
vt 0.2555 0.7259 0.0000
vt 0.2555 0.6626 0.0000
vt 0.9586 0.2845 0.0000
vt 0.9117 0.2467 0.0000
vt 0.1763 0.4973 0.0000
vt 0.1727 0.4565 0.0000
vt 0.1813 0.9293 0.0000
vt 0.1631 0.9839 0.0000
vt 0.4343 0.7259 0.0000
vt 0.4066 0.7259 0.0000
vt 0.8925 0.3295 0.0000
vt 0.8645 0.2988 0.0000
vt 0.1441 0.4954 0.0000
vt 0.1037 0.4900 0.0000
vt 0.1051 0.4243 0.0000
vt 0.1356 0.4278 0.0000
vt 0.2499 0.9448 0.0000
vt 0.2447 0.9860 0.0000
vt 0.5289 0.7519 0.0000
vt 0.5289 0.6525 0.0000
vt 0.4944 0.5285 0.0000
vt 0.4944 0.5556 0.0000
vt 0.1599 0.5556 0.0000
vt 0.1599 0.5285 0.0000
vt 0.3445 0.1533 0.0000
vt 0.3445 0.1804 0.0000
vt 0.0100 0.1533 0.0000
vt 0.0100 0.1804 0.0000
vt 0.1578 0.6646 0.0000
vt 0.1578 0.7259 0.0000
vt 0.1307 0.7259 0.0000
vt 0.1307 0.6646 0.0000
vt 0.8633 0.8438 0.0000
vt 0.5289 0.8438 0.0000
vt 0.5289 0.7824 0.0000
vt 0.8633 0.7824 0.0000
vt 0.7097 0.2124 0.0000
vt 0.7097 0.1130 0.0000
vt 0.4589 0.2301 0.0000
vt 0.4124 0.2301 0.0000
vt 0.7215 0.1031 0.0000
vt 0.7215 0.0398 0.0000
vt 0.7840 0.0398 0.0000
vt 0.7840 0.1031 0.0000
vt 0.0455 0.6053 0.0000
vt 0.0920 0.6053 0.0000
vt 0.0733 0.7259 0.0000
vt 0.0100 0.7259 0.0000
vt 0.5891 0.1939 0.0000
vt 0.5891 0.1314 0.0000
vt 0.4944 0.3507 0.0000
vt 0.4311 0.3507 0.0000
vt 0.7559 0.4398 0.0000
vt 0.6748 0.5310 0.0000
vt 0.6223 0.4970 0.0000
vt 0.6725 0.3857 0.0000
vt 0.7489 0.3132 0.0000
vt 0.7182 0.3132 0.0000
vt 0.7182 0.2825 0.0000
vt 0.7489 0.2825 0.0000
vt 0.5289 0.1939 0.0000
vt 0.5289 0.1314 0.0000
vt 0.6420 0.5816 0.0000
vt 0.5896 0.5475 0.0000
vt 0.3802 0.6045 0.0000
vt 0.3624 0.6856 0.0000
vt 0.3347 0.6856 0.0000
vt 0.3169 0.6045 0.0000
vt 0.7491 0.5653 0.0000
vt 0.7631 0.6181 0.0000
vt 0.9054 0.0576 0.0000
vt 0.9054 0.0853 0.0000
vt 0.5641 0.0100 0.0000
vt 0.6007 0.0504 0.0000
vt 0.8538 0.3295 0.0000
vt 0.8010 0.3295 0.0000
vt 0.8010 0.2662 0.0000
vt 0.8538 0.2662 0.0000
vt 0.6071 0.2467 0.0000
vt 0.5602 0.2845 0.0000
vt 0.6310 0.1031 0.0000
vt 0.6346 0.0623 0.0000
vt 0.5340 0.4734 0.0000
vt 0.5879 0.4532 0.0000
vt 0.3624 0.7259 0.0000
vt 0.3347 0.7259 0.0000
vt 0.6543 0.2988 0.0000
vt 0.6263 0.3295 0.0000
vt 0.1727 0.4075 0.0000
vt 0.2402 0.4161 0.0000
vt 0.2437 0.4466 0.0000
vt 0.1780 0.4479 0.0000
vt 0.5289 0.3920 0.0000
vt 0.5698 0.3852 0.0000
vt 0.9313 0.8771 0.0000
vt 0.9313 0.7778 0.0000
vt 0.4944 0.5826 0.0000
vt 0.1599 0.5826 0.0000
vt 0.3445 0.2074 0.0000
vt 0.0100 0.2074 0.0000
vt 0.1037 0.6646 0.0000
vt 0.1037 0.7259 0.0000
# 152 texture coords

g Box011
usemtl 22___Default
s 16
f 1/1/1 2/2/2 3/3/3 
f 3/3/3 4/4/3 1/1/1 
s 32
f 5/5/4 6/6/4 7/7/4 
f 7/7/4 8/8/4 5/5/4 
s 4
f 7/9/5 6/10/5 9/11/6 
f 9/11/6 10/12/7 7/9/5 
s 16
f 11/13/3 12/14/3 13/15/3 
f 13/15/3 14/16/3 11/13/3 
s 2
f 8/17/8 15/18/9 16/19/10 
f 16/19/10 5/20/8 8/17/8 
s off
f 15/18/11 8/17/11 17/21/11 
f 17/21/11 18/22/11 15/18/11 
f 8/8/12 7/7/12 19/23/12 
f 19/23/12 17/24/12 8/8/12 
f 7/9/13 10/12/13 20/25/13 
f 20/25/13 19/26/13 7/9/13 
f 10/27/14 15/28/14 18/29/14 
f 18/29/14 20/30/14 10/27/14 
f 21/31/15 22/32/15 23/33/15 
f 23/33/15 24/34/15 21/31/15 
f 17/24/4 19/23/4 12/35/4 
f 12/35/4 11/36/4 17/24/4 
f 20/30/16 18/29/16 14/37/16 
f 14/37/16 13/38/16 20/30/16 
f 19/39/17 20/40/17 25/41/17 
f 25/41/17 26/42/17 19/39/17 
f 20/30/18 13/38/18 27/43/18 
f 27/43/19 25/44/19 20/30/19 
f 13/15/20 12/14/20 28/45/20 
f 28/45/20 27/46/20 13/15/20 
f 12/35/21 19/23/21 26/47/21 
f 26/47/22 28/48/22 12/35/22 
f 18/49/23 17/50/23 29/51/23 
f 29/51/23 30/52/23 18/49/23 
f 17/24/4 11/36/4 31/53/4 
f 31/53/4 29/54/4 17/24/4 
f 11/13/24 14/16/24 32/55/24 
f 32/55/25 31/56/25 11/13/25 
f 14/37/26 18/29/26 30/57/26 
f 30/57/27 32/58/27 14/37/27 
f 26/42/28 25/41/28 27/59/28 
f 27/59/28 28/60/28 26/42/28 
f 30/52/29 29/51/29 22/32/29 
f 22/32/29 21/31/29 30/52/29 
f 29/54/30 31/53/30 23/61/30 
f 23/61/31 22/62/31 29/54/31 
f 31/63/32 32/64/32 24/65/32 
f 24/65/33 23/66/33 31/63/33 
f 32/58/34 30/57/34 21/67/34 
f 21/67/35 24/68/35 32/58/35 
s 16
f 15/69/36 10/70/36 2/2/2 
f 2/2/2 1/1/1 15/69/36 
s 2
f 4/71/8 33/72/8 34/73/10 
f 34/73/10 1/74/37 4/71/8 
s 4
f 2/75/38 10/12/7 9/11/6 
f 9/11/6 35/76/6 2/75/38 
s 2
f 16/19/10 15/18/9 1/74/37 
f 1/74/37 34/73/10 16/19/10 
s 4
f 3/77/5 2/75/38 35/76/6 
f 35/76/6 36/78/5 3/77/5 
s 8
f 4/79/26 3/80/26 36/81/26 
f 36/81/26 33/82/26 4/79/26 
s 16
f 37/83/39 38/84/40 39/85/40 
f 39/85/40 40/86/41 37/83/39 
s 32
f 5/5/4 41/87/4 42/88/4 
f 42/88/4 6/6/4 5/5/4 
s 4
f 42/89/5 43/90/42 9/11/6 
f 9/11/6 6/10/5 42/89/5 
s 16
f 44/91/40 45/92/40 46/93/40 
f 46/93/40 47/94/40 44/91/40 
s 2
f 41/95/8 5/20/8 16/19/10 
f 16/19/10 48/96/43 41/95/8 
s off
f 48/96/44 49/97/44 50/98/44 
f 50/98/44 41/95/44 48/96/44 
f 41/87/45 50/99/45 51/100/45 
f 51/100/45 42/88/45 41/87/45 
f 42/89/46 51/101/46 52/102/46 
f 52/102/46 43/90/46 42/89/46 
f 43/103/47 52/104/47 49/105/47 
f 49/105/47 48/106/47 43/103/47 
f 53/107/48 54/108/48 55/109/48 
f 55/109/48 56/110/48 53/107/48 
f 50/99/4 44/111/4 47/112/4 
f 47/112/4 51/100/4 50/99/4 
f 52/104/16 46/113/16 45/114/16 
f 45/114/16 49/105/16 52/104/16 
f 51/115/49 57/116/49 58/117/49 
f 58/117/49 52/118/49 51/115/49 
f 52/104/50 58/119/50 59/120/50 
f 59/120/18 46/113/18 52/104/18 
f 46/93/51 59/121/51 60/122/51 
f 60/122/51 47/94/51 46/93/51 
f 47/112/52 60/123/52 57/124/52 
f 57/124/21 51/100/21 47/112/21 
f 49/125/53 61/126/53 62/127/53 
f 62/127/53 50/128/53 49/125/53 
f 50/99/4 62/129/4 63/130/4 
f 63/130/4 44/111/4 50/99/4 
f 44/91/54 63/131/54 64/132/54 
f 64/132/55 45/92/55 44/91/55 
f 45/114/56 64/133/56 61/134/56 
f 61/134/26 49/105/26 45/114/26 
f 57/116/57 60/135/57 59/136/57 
f 59/136/57 58/117/57 57/116/57 
f 61/126/58 53/107/58 56/110/58 
f 56/110/58 62/127/58 61/126/58 
f 62/129/59 56/137/59 55/138/59 
f 55/138/60 63/130/60 62/129/60 
f 63/139/61 55/140/61 54/141/61 
f 54/141/62 64/142/62 63/139/62 
f 64/133/63 54/143/63 53/144/63 
f 53/144/64 61/134/64 64/133/64 
s 16
f 48/145/65 37/83/39 40/86/41 
f 40/86/41 43/146/65 48/145/65 
s 2
f 38/147/8 37/148/66 34/73/10 
f 34/73/10 33/72/8 38/147/8 
s 4
f 40/149/67 35/76/6 9/11/6 
f 9/11/6 43/90/42 40/149/67 
s 2
f 16/19/10 34/73/10 37/148/66 
f 37/148/66 48/96/43 16/19/10 
s 4
f 39/150/5 36/78/5 35/76/6 
f 35/76/6 40/149/67 39/150/5 
s 8
f 38/151/26 33/82/26 36/81/26 
f 36/81/26 39/152/26 38/151/26 
# 124 faces

