# 3ds Max Wavefront OBJ Exporter v0.97b - (c)2007 guruware
# File Created: 31.05.2016 11:41:53

mtllib collidercube.mtl

#
# object Box001
#

v  1.0000 -1.0000 0.8866
v  0.8866 -1.0000 0.8866
v  0.8866 -1.0000 -0.8866
v  1.0000 -1.0000 -0.8866
v  -1.0000 -1.0000 -0.8866
v  -0.8866 -1.0000 -0.8866
v  -0.8866 -1.0000 0.8866
v  -1.0000 -1.0000 0.8866
v  1.0000 1.0000 -0.8866
v  0.8866 1.0000 -0.8866
v  0.8866 1.0000 0.8866
v  1.0000 1.0000 0.8866
v  -1.0000 1.0000 0.8866
v  -0.8866 1.0000 0.8866
v  -0.8866 1.0000 -0.8866
v  -1.0000 1.0000 -0.8866
v  1.0000 0.8866 1.0000
v  0.8866 0.8866 1.0000
v  0.8866 -0.8866 1.0000
v  1.0000 -0.8866 1.0000
v  -1.0000 -0.8866 1.0000
v  -0.8866 -0.8866 1.0000
v  -0.8866 0.8866 1.0000
v  -1.0000 0.8866 1.0000
v  -1.0000 0.8866 -1.0000
v  -0.8866 0.8866 -1.0000
v  -0.8866 -0.8866 -1.0000
v  -1.0000 -0.8866 -1.0000
v  1.0000 -0.8866 -1.0000
v  0.8866 -0.8866 -1.0000
v  0.8866 0.8866 -1.0000
v  1.0000 0.8866 -1.0000
v  0.8866 -1.0000 1.0000
v  -0.8866 -1.0000 1.0000
v  -0.8866 -1.0000 -1.0000
v  0.8866 -1.0000 -1.0000
v  0.8866 1.0000 -1.0000
v  -0.8866 1.0000 -1.0000
v  -0.8866 1.0000 1.0000
v  0.8866 1.0000 1.0000
v  1.0000 0.8866 -0.8866
v  1.0000 -0.8866 -0.8866
v  1.0000 -0.8866 0.8866
v  1.0000 0.8866 0.8866
v  -1.0000 0.8866 0.8866
v  -1.0000 -0.8866 0.8866
v  -1.0000 -0.8866 -0.8866
v  -1.0000 0.8866 -0.8866
v  1.0000 -1.0000 1.0000
v  1.0000 -1.0000 -1.0000
v  -1.0000 -1.0000 -1.0000
v  -1.0000 -1.0000 1.0000
v  1.0000 1.0000 -1.0000
v  1.0000 1.0000 1.0000
v  -1.0000 1.0000 1.0000
v  -1.0000 1.0000 -1.0000
# 56 vertices

vn 0.0000 -1.0000 -0.0000
vn 0.0000 1.0000 -0.0000
vn 0.0000 0.0000 1.0000
vn 0.0000 0.0000 -1.0000
vn 1.0000 0.0000 -0.0000
vn -1.0000 0.0000 -0.0000
# 6 vertex normals

vt 0.0000 0.0567 0.0000
vt 0.0567 0.0567 0.0000
vt 0.0567 0.9433 0.0000
vt 0.0000 0.9433 0.0000
vt 1.0000 0.9433 0.0000
vt 0.9433 0.9433 0.0000
vt 0.9433 0.0567 0.0000
vt 1.0000 0.0567 0.0000
vt 0.0567 0.0000 0.0000
vt 0.9433 0.0000 0.0000
vt 0.9433 1.0000 0.0000
vt 0.0567 1.0000 0.0000
vt 0.0000 0.0000 0.0000
vt 0.0000 1.0000 0.0000
vt 1.0000 1.0000 0.0000
vt 1.0000 0.0000 0.0000
# 16 texture coords

g Box001
usemtl wire_176026026
s 2
f 1/1/1 2/2/1 3/3/1 
f 3/3/1 4/4/1 1/1/1 
f 5/5/1 6/6/1 7/7/1 
f 7/7/1 8/8/1 5/5/1 
s 4
f 9/5/2 10/6/2 11/7/2 
f 11/7/2 12/8/2 9/5/2 
f 13/1/2 14/2/2 15/3/2 
f 15/3/2 16/4/2 13/1/2 
s 8
f 17/5/3 18/6/3 19/7/3 
f 19/7/3 20/8/3 17/5/3 
f 21/1/3 22/2/3 23/3/3 
f 23/3/3 24/4/3 21/1/3 
s 32
f 25/5/4 26/6/4 27/7/4 
f 27/7/4 28/8/4 25/5/4 
f 29/1/4 30/2/4 31/3/4 
f 31/3/4 32/4/4 29/1/4 
s 2
f 33/9/1 34/10/1 7/7/1 
f 7/7/1 2/2/1 33/9/1 
f 35/11/1 36/12/1 3/3/1 
f 3/3/1 6/6/1 35/11/1 
s 4
f 37/11/2 38/12/2 15/3/2 
f 15/3/2 10/6/2 37/11/2 
f 39/9/2 40/10/2 11/7/2 
f 11/7/2 14/2/2 39/9/2 
s 16
f 32/5/5 41/6/5 42/7/5 
f 42/7/5 29/8/5 32/5/5 
f 20/1/5 43/2/5 44/3/5 
f 44/3/5 17/4/5 20/1/5 
s 64
f 24/5/6 45/6/6 46/7/6 
f 46/7/6 21/8/6 24/5/6 
f 28/1/6 47/2/6 48/3/6 
f 48/3/6 25/4/6 28/1/6 
s 2
f 49/13/1 33/9/1 2/2/1 
f 2/2/1 1/1/1 49/13/1 
f 36/12/1 50/14/1 4/4/1 
f 4/4/1 3/3/1 36/12/1 
f 51/15/1 35/11/1 6/6/1 
f 6/6/1 5/5/1 51/15/1 
f 34/10/1 52/16/1 8/8/1 
f 8/8/1 7/7/1 34/10/1 
s 4
f 53/15/2 37/11/2 10/6/2 
f 10/6/2 9/5/2 53/15/2 
f 40/10/2 54/16/2 12/8/2 
f 12/8/2 11/7/2 40/10/2 
f 55/13/2 39/9/2 14/2/2 
f 14/2/2 13/1/2 55/13/2 
f 38/12/2 56/14/2 16/4/2 
f 16/4/2 15/3/2 38/12/2 
s 8
f 40/11/3 39/12/3 23/3/3 
f 23/3/3 18/6/3 40/11/3 
f 34/9/3 33/10/3 19/7/3 
f 19/7/3 22/2/3 34/9/3 
s 16
f 9/11/5 12/12/5 44/3/5 
f 44/3/5 41/6/5 9/11/5 
f 1/9/5 4/10/5 42/7/5 
f 42/7/5 43/2/5 1/9/5 
s 32
f 38/11/4 37/12/4 31/3/4 
f 31/3/4 26/6/4 38/11/4 
f 36/9/4 35/10/4 27/7/4 
f 27/7/4 30/2/4 36/9/4 
s 64
f 13/11/6 16/12/6 48/3/6 
f 48/3/6 45/6/6 13/11/6 
f 5/9/6 8/10/6 46/7/6 
f 46/7/6 47/2/6 5/9/6 
s 8
f 54/15/3 40/11/3 18/6/3 
f 18/6/3 17/5/3 54/15/3 
f 33/10/3 49/16/3 20/8/3 
f 20/8/3 19/7/3 33/10/3 
f 52/13/3 34/9/3 22/2/3 
f 22/2/3 21/1/3 52/13/3 
f 39/12/3 55/14/3 24/4/3 
f 24/4/3 23/3/3 39/12/3 
s 32
f 56/15/4 38/11/4 26/6/4 
f 26/6/4 25/5/4 56/15/4 
f 35/10/4 51/16/4 28/8/4 
f 28/8/4 27/7/4 35/10/4 
f 50/13/4 36/9/4 30/2/4 
f 30/2/4 29/1/4 50/13/4 
f 37/12/4 53/14/4 32/4/4 
f 32/4/4 31/3/4 37/12/4 
s 16
f 53/15/5 9/11/5 41/6/5 
f 41/6/5 32/5/5 53/15/5 
f 4/10/5 50/16/5 29/8/5 
f 29/8/5 42/7/5 4/10/5 
f 49/13/5 1/9/5 43/2/5 
f 43/2/5 20/1/5 49/13/5 
f 12/12/5 54/14/5 17/4/5 
f 17/4/5 44/3/5 12/12/5 
s 64
f 55/15/6 13/11/6 45/6/6 
f 45/6/6 24/5/6 55/15/6 
f 8/10/6 52/16/6 21/8/6 
f 21/8/6 46/7/6 8/10/6 
f 51/13/6 5/9/6 47/2/6 
f 47/2/6 28/1/6 51/13/6 
f 16/12/6 56/14/6 25/4/6 
f 25/4/6 48/3/6 16/12/6 
# 96 faces

