# Blender v2.76 (sub 0) OBJ File: ''
# www.blender.org
mtllib test.mtl
o Cube
v 1.000000 -1.000000 -1.000000
v 1.000000 -1.000000 1.000000
v -1.000000 -1.000000 1.000000
v -1.000000 -1.000000 -1.000000
v 1.000000 1.000000 -0.999999
v 0.999999 1.000000 1.000001
v -1.000000 1.000000 1.000000
v -1.000000 1.000000 -1.000000
vt 1.000000 1.000000
vt 0.000000 1.000000
vt 0.000000 0.000000
vt 0.000100 0.999900
vt 0.000100 0.000100
vt 0.999899 0.000100
vt 0.999900 0.999900
vt 1.000000 0.000001
vn 0.000000 -1.000000 0.000000
vn 0.000000 1.000000 0.000000
vn 1.000000 0.000000 0.000000
vn -0.000000 0.000000 1.000000
vn -1.000000 -0.000000 -0.000000
vn 0.000000 0.000000 -1.000000
usemtl Material
s off
f 2/1/1 3/2/1 4/3/1
f 8/4/2 7/5/2 6/6/2
f 5/7/3 6/4/3 2/5/3
f 6/7/4 7/4/4 3/5/4
f 3/8/5 7/1/5 8/2/5
f 1/3/6 4/8/6 8/1/6
f 1/8/1 2/1/1 4/3/1
f 5/7/2 8/4/2 6/6/2
f 1/6/3 5/7/3 2/5/3
f 2/6/4 6/7/4 3/5/4
f 4/3/5 3/8/5 8/2/5
f 5/2/6 1/3/6 8/1/6
